<svg width="980" height="695" viewBox="0 0 980 695" fill="none" xmlns="http://www.w3.org/2000/svg">
<path fill-rule="evenodd" clip-rule="evenodd" d="M957.699 437.469C928.033 500.415 871.161 540.398 820.787 564.31C793.316 577.351 765.726 583.916 738.284 594.015C710.395 604.085 684.265 618.49 660.854 636.702C611.607 674.546 570.34 725.609 525.455 772.098C502.611 795.862 480.242 816.477 454.996 832.637C404.436 865.005 345.352 881.466 285.361 879.897C249.994 879.569 215.067 872.018 182.714 857.708C109.882 824.884 71.3452 776.85 44.6748 726.738C18.5304 677.01 3.61267 622.139 0.975728 566.003C-1.99095 509.148 2.04373 449.084 9.87576 388.872C21.7425 297.321 45.2682 200.512 105.877 108.574C144.444 49.8472 191.614 6.12125 251.927 0.566389C282.81 -2.2556 316.897 5.20038 351.963 28.9645C379.998 48.0352 405.363 68.9773 433.191 90.6323C458.141 109.941 489.558 136.735 526.671 143.092C556.338 148.141 591.73 140.715 614.04 125.981C626.411 117.842 637.358 104.653 649.64 95.8307C661.604 87.2786 674.826 80.6442 688.829 76.1659C718.159 66.4471 749.377 63.8507 779.906 68.5911C815.813 75.1224 849.489 90.6334 877.807 113.683C926.876 154.558 952.715 207.195 968.112 259.536C976.325 286.574 980.328 314.718 979.979 342.977C979.284 375.695 971.691 407.895 957.699 437.469Z" fill="#26A9E0" fill-opacity="0.08"/>
</svg>
