<svg width="1086" height="934" viewBox="0 0 1086 934" fill="none" xmlns="http://www.w3.org/2000/svg">
<path fill-rule="evenodd" clip-rule="evenodd" d="M958.876 -117.242C897.196 -153.379 825.056 -144.417 767.69 -125.361C736.356 -114.977 708.734 -98.1616 679.256 -84.8391C650.43 -71.436 619.383 -63.4492 587.664 -61.2778C523.381 -56.7968 458.351 -71.5407 392.863 -78.9608C361.108 -83.4712 328.865 -83.3332 297.15 -78.5513C234.795 -67.5656 174.224 -33.9583 123.029 17.9344C91.5801 49.1645 65.7132 85.546 46.5497 125.502C2.17589 218.447 -3.80162 297.346 1.71799 368.319C7.57504 438.497 26.1103 504.194 56.0222 560.784C86.9536 619.031 123.507 674.117 165.161 725.256C227.829 803.986 303.561 878.236 408.458 916.444C475.585 940.945 541.338 943.884 596.799 898.665C625.145 875.634 650.525 839.834 667.301 787.267C680.702 745.251 690.561 703.79 702.468 659.342C713.073 619.663 724.932 567.457 753.566 530.044C777.091 500.122 807.364 480.078 839.132 473.381C854.534 470.972 871.551 474.489 887.121 472.875C902.873 470.931 918.167 466.26 932.315 459.071C963.263 443.869 991.801 420.163 1015.52 389.953C1043.43 352.389 1063.52 309.61 1074.6 264.148C1093.88 183.153 1086.29 110.445 1069.77 46.6754C1061.94 14.6783 1049.35 -15.9621 1032.41 -44.2211C1014.28 -74.2317 989.02 -99.3116 958.876 -117.242Z" fill="#4ABFB0" fill-opacity="0.1"/>
</svg>
