<svg width="1086" height="1076" viewBox="0 0 1086 1076" fill="none" xmlns="http://www.w3.org/2000/svg">
<path fill-rule="evenodd" clip-rule="evenodd" d="M958.876 24.758C897.196 -11.3789 825.056 -2.41695 767.69 16.6393C736.356 27.0226 708.734 43.8384 679.256 57.1609C650.43 70.564 619.383 78.5508 587.664 80.7222C523.381 85.2032 458.351 70.4593 392.863 63.0392C361.108 58.5288 328.865 58.6668 297.15 63.4487C234.795 74.4344 174.224 108.042 123.029 159.934C91.5801 191.164 65.7132 227.546 46.5497 267.502C2.17589 360.446 -3.80162 439.346 1.71799 510.319C7.57504 580.497 26.1103 646.194 56.0222 702.784C86.9536 761.031 123.507 816.117 165.161 867.256C227.829 945.986 303.561 1020.24 408.458 1058.44C475.585 1082.95 541.338 1085.88 596.799 1040.66C625.145 1017.63 650.525 981.834 667.301 929.267C680.702 887.251 690.561 845.79 702.468 801.342C713.073 761.663 724.931 709.457 753.566 672.044C777.091 642.122 807.364 622.078 839.132 615.381C854.534 612.972 871.551 616.489 887.121 614.875C902.873 612.931 918.166 608.26 932.315 601.071C963.263 585.869 991.801 562.163 1015.52 531.953C1043.43 494.389 1063.52 451.61 1074.6 406.148C1093.88 325.153 1086.29 252.445 1069.77 188.675C1061.94 156.678 1049.35 126.038 1032.41 97.7789C1014.28 67.7683 989.02 42.6884 958.876 24.758V24.758Z" fill="#4ABFB0" fill-opacity="0.1"/>
</svg>
