<svg width="1230" height="1035" viewBox="0 0 1230 1035" fill="none" xmlns="http://www.w3.org/2000/svg">
<path fill-rule="evenodd" clip-rule="evenodd" d="M16.8141 378.013C6.19242 410.012 0.564508 443.45 0.127247 477.156C-1.3139 542.318 9.11552 611.416 50.4536 675.783C74.3897 712.231 107.157 742.063 145.721 762.515C178.812 778.976 215.354 787.343 252.328 786.922C269.913 786.889 287.388 784.145 304.133 778.786C321.199 773.11 338.266 762.136 355.521 757.33C386.316 748.665 429.475 753.13 461.37 769.591C501.532 790.29 527.548 832.104 548.976 863.096C573.02 897.834 594.22 930.793 619.251 962.617C650.615 1002.39 686.871 1023.16 723.013 1031.11C793.819 1046.66 863.335 1014.01 928.756 961.293C1031.15 878.724 1093.08 777.197 1140 677.486C1170.83 611.945 1197.34 545.043 1214.48 479.389C1231.78 414.664 1234.66 346.941 1222.9 280.988C1210.65 214.351 1184.1 145.783 1112.92 82.0964C1081.2 54.1804 1044.12 33.0121 1003.92 19.8859C936.069 -3.65947 862.697 -6.36159 793.288 12.1286C758.625 21.3239 725.592 36.763 690.891 55.3807C622.626 91.9351 557.206 135.036 487.348 160.162C454.044 172.398 419.012 179.308 383.548 180.634C348.619 181.997 314.752 179.461 278.723 184.418C212.582 193.349 133.168 218.173 76.508 279.021C49.8608 307.467 29.5207 341.197 16.8141 378.013Z" fill="#F89C27" fill-opacity="0.08"/>
</svg>
