<svg width="20" height="21" viewBox="0 0 20 21" fill="none" xmlns="http://www.w3.org/2000/svg">
<path d="M16.48 1.4287e-05H8.56C7.63428 0.00263667 6.74708 0.370859 6.09155 1.02451C5.43603 1.67816 5.06527 2.56431 5.06 3.49002V6.65002H3.5C2.57336 6.65527 1.68617 7.0257 1.03093 7.68094C0.375689 8.33618 0.0052522 9.22338 2.00329e-06 10.15V19.01C-0.000373071 19.1974 0.0519275 19.3812 0.150942 19.5403C0.249956 19.6994 0.391697 19.8276 0.56 19.91C0.697132 19.9764 0.847632 20.0106 1 20.01C1.22557 20.0087 1.44406 19.9312 1.62 19.79L4.16001 17.79H10.43C11.3566 17.7848 12.2438 17.4143 12.8991 16.7591C13.5543 16.1038 13.9248 15.2167 13.93 14.29V11.11H15.83L18.36 13.11C18.5073 13.228 18.6851 13.3019 18.8727 13.3232C19.0602 13.3444 19.25 13.3121 19.42 13.23C19.5902 13.149 19.734 13.0215 19.8348 12.8622C19.9357 12.703 19.9895 12.5185 19.99 12.33V3.50001C19.99 3.03955 19.8991 2.5836 19.7226 2.15831C19.5461 1.73302 19.2874 1.34673 18.9614 1.0216C18.6353 0.696462 18.2483 0.438863 17.8225 0.26356C17.3967 0.0882579 16.9405 -0.00130134 16.48 1.4287e-05ZM11.91 14.25C11.9038 14.6485 11.7423 15.0288 11.46 15.31C11.195 15.5788 10.8373 15.7362 10.46 15.75H3.84C3.61328 15.7444 3.39249 15.8228 3.22 15.97L2.03 16.91V10.13C2.03 9.73219 2.18804 9.35066 2.46935 9.06936C2.75065 8.78805 3.13218 8.63001 3.53 8.63001H10.95C11.0823 8.63056 11.2132 8.65736 11.3351 8.70886C11.4569 8.76036 11.5674 8.83553 11.66 8.93001C11.8447 9.11627 11.9489 9.36767 11.95 9.63001L11.91 14.25ZM17.97 10.25L16.79 9.25001C16.6114 9.10671 16.389 9.02905 16.16 9.03001H13.86C13.7547 8.42895 13.4687 7.87428 13.04 7.44001C12.4779 6.87724 11.7154 6.56072 10.92 6.56002H7.05V3.48001C7.05265 3.08392 7.21184 2.70496 7.49286 2.42581C7.77388 2.14667 8.15391 1.99001 8.55 1.99002H16.47C16.8678 1.99002 17.2494 2.14805 17.5307 2.42935C17.812 2.71066 17.97 3.09219 17.97 3.49002V10.25Z" fill="white"/>
</svg>
