<svg width="729" height="627" viewBox="0 0 729 627" fill="none" xmlns="http://www.w3.org/2000/svg">
<path d="M648.501 189.245C648.525 189.123 648.503 188.996 648.438 188.89C648.374 188.784 648.271 188.707 648.151 188.673C648.032 188.64 647.904 188.652 647.793 188.709C647.683 188.766 647.598 188.862 647.556 188.979L631.538 246.817L631.509 246.91L631.642 248.101L572.327 188.762C572.235 188.67 572.109 188.618 571.978 188.618C571.847 188.618 571.721 188.67 571.628 188.762C571.536 188.855 571.483 188.981 571.483 189.112C571.483 189.243 571.536 189.369 571.628 189.461L631.681 249.514C631.725 249.556 631.777 249.59 631.834 249.613L647.541 390.244C647.554 390.365 647.612 390.477 647.703 390.558C647.794 390.639 647.911 390.683 648.033 390.682H648.087C648.216 390.668 648.334 390.602 648.415 390.501C648.496 390.399 648.534 390.27 648.52 390.141L632.523 246.989L648.501 189.245Z" fill="#00377D"/>
<path d="M716.533 314.066C716.436 313.979 716.308 313.933 716.178 313.94C716.048 313.946 715.926 314.004 715.839 314.101L697.626 334.075L704.389 272.6C704.403 272.471 704.365 272.342 704.284 272.24C704.203 272.139 704.085 272.074 703.956 272.059C703.827 272.045 703.697 272.083 703.596 272.164C703.495 272.245 703.429 272.363 703.414 272.492L696.523 335.277V390.19C696.523 390.321 696.575 390.446 696.667 390.538C696.76 390.631 696.885 390.683 697.015 390.683C697.146 390.683 697.271 390.631 697.363 390.538C697.456 390.446 697.508 390.321 697.508 390.19V335.685L716.562 314.77C716.607 314.722 716.642 314.666 716.665 314.604C716.688 314.543 716.698 314.477 716.696 314.412C716.693 314.346 716.677 314.282 716.649 314.222C716.621 314.163 716.581 314.11 716.533 314.066Z" fill="#00377D"/>
<path d="M334.198 101.386H218.267C217.484 101.386 216.733 101.697 216.179 102.251C215.625 102.805 215.314 103.556 215.314 104.339V122.552C215.314 123.335 215.625 124.087 216.179 124.64C216.733 125.194 217.484 125.505 218.267 125.505H334.198C334.982 125.505 335.733 125.194 336.287 124.64C336.841 124.087 337.152 123.335 337.152 122.552V104.339C337.152 103.556 336.841 102.805 336.287 102.251C335.733 101.697 334.982 101.386 334.198 101.386ZM336.167 122.552C336.167 123.074 335.96 123.575 335.591 123.944C335.221 124.313 334.721 124.521 334.198 124.521H218.267C217.745 124.521 217.244 124.313 216.875 123.944C216.506 123.575 216.298 123.074 216.298 122.552V104.339C216.298 103.817 216.506 103.316 216.875 102.947C217.244 102.578 217.745 102.37 218.267 102.37H334.198C334.721 102.37 335.221 102.578 335.591 102.947C335.96 103.316 336.167 103.817 336.167 104.339V122.552Z" fill="#00377D"/>
<path d="M334.198 35.6575H218.267C217.484 35.6575 216.733 35.9686 216.179 36.5225C215.625 37.0764 215.314 37.8276 215.314 38.6109V56.8236C215.314 57.6069 215.625 58.3581 216.179 58.912C216.733 59.4659 217.484 59.777 218.267 59.777H334.198C334.982 59.777 335.733 59.4659 336.287 58.912C336.841 58.3581 337.152 57.6069 337.152 56.8236V38.6109C337.152 37.8276 336.841 37.0764 336.287 36.5225C335.733 35.9686 334.982 35.6575 334.198 35.6575ZM336.167 56.8236C336.167 57.3458 335.96 57.8466 335.591 58.2159C335.221 58.5851 334.721 58.7925 334.198 58.7925H218.267C217.745 58.7925 217.244 58.5851 216.875 58.2159C216.506 57.8466 216.298 57.3458 216.298 56.8236V38.6109C216.298 38.0887 216.506 37.5879 216.875 37.2186C217.244 36.8494 217.745 36.6419 218.267 36.6419H334.198C334.721 36.6419 335.221 36.8494 335.591 37.2186C335.96 37.5879 336.167 38.0887 336.167 38.6109V56.8236Z" fill="#00377D"/>
<path d="M334.198 69.7449H218.267C217.484 69.7449 216.733 70.056 216.179 70.6099C215.625 71.1638 215.314 71.915 215.314 72.6983V90.911C215.314 91.6943 215.625 92.4455 216.179 92.9994C216.733 93.5533 217.484 93.8644 218.267 93.8644H334.198C334.982 93.8644 335.733 93.5533 336.287 92.9994C336.841 92.4455 337.152 91.6943 337.152 90.911V72.6983C337.152 71.915 336.841 71.1638 336.287 70.6099C335.733 70.056 334.982 69.7449 334.198 69.7449ZM336.167 90.911C336.167 91.4332 335.96 91.934 335.591 92.3033C335.221 92.6725 334.721 92.8799 334.198 92.8799H218.267C217.745 92.8799 217.244 92.6725 216.875 92.3033C216.506 91.934 216.298 91.4332 216.298 90.911V72.6983C216.298 72.1761 216.506 71.6753 216.875 71.306C217.244 70.9368 217.745 70.7293 218.267 70.7293H334.198C334.721 70.7293 335.221 70.9368 335.591 71.306C335.96 71.6753 336.167 72.1761 336.167 72.6983V90.911Z" fill="#00377D"/>
<path d="M391.962 0H217.012C206.963 0.0104244 197.328 4.00702 190.223 11.1128C183.117 18.2186 179.12 27.8531 179.11 37.9021V119.121C179.121 129.17 183.118 138.803 190.224 145.909C197.329 153.014 206.963 157.011 217.012 157.023H362.177L391.47 186.316V157.023H391.962C402.011 157.011 411.645 153.014 418.75 145.909C425.856 138.803 429.853 129.17 429.864 119.121V37.9021C429.854 27.8531 425.857 18.2186 418.752 11.1128C411.646 4.00702 402.011 0.0104244 391.962 0ZM428.88 119.121C428.868 128.909 424.975 138.292 418.054 145.213C411.133 152.134 401.75 156.027 391.962 156.039H390.486V183.944L362.586 156.044H217.012C207.224 156.032 197.841 152.139 190.92 145.218C183.999 138.297 180.106 128.914 180.094 119.126V37.9071C180.105 28.1191 183.998 18.735 190.919 11.8138C197.84 4.8927 207.224 0.999822 217.012 0.989398H391.962C401.75 0.999822 411.134 4.8927 418.055 11.8138C424.977 18.735 428.87 28.1191 428.88 37.9071V119.121Z" fill="#00377D"/>
<path d="M216.864 24.1343H281.175C281.305 24.1343 281.431 24.0824 281.523 23.9901C281.615 23.8978 281.667 23.7726 281.667 23.642C281.667 23.5115 281.615 23.3863 281.523 23.294C281.431 23.2016 281.305 23.1498 281.175 23.1498H216.864C216.734 23.1498 216.608 23.2016 216.516 23.294C216.424 23.3863 216.372 23.5115 216.372 23.642C216.372 23.7726 216.424 23.8978 216.516 23.9901C216.608 24.0824 216.734 24.1343 216.864 24.1343Z" fill="#00377D"/>
<path d="M355.557 40.6095H388.256C388.386 40.6095 388.512 40.5576 388.604 40.4653C388.696 40.373 388.748 40.2478 388.748 40.1172C388.748 39.9867 388.696 39.8615 388.604 39.7692C388.512 39.6769 388.386 39.625 388.256 39.625H355.557C355.426 39.625 355.301 39.6769 355.209 39.7692C355.116 39.8615 355.064 39.9867 355.064 40.1172C355.064 40.2478 355.116 40.373 355.209 40.4653C355.301 40.5576 355.426 40.6095 355.557 40.6095Z" fill="#00377D"/>
<path d="M355.557 54.643H392.169C392.3 54.643 392.425 54.5912 392.517 54.4989C392.609 54.4065 392.661 54.2814 392.661 54.1508C392.661 54.0203 392.609 53.895 392.517 53.8027C392.425 53.7104 392.3 53.6586 392.169 53.6586H355.557C355.426 53.6586 355.301 53.7104 355.209 53.8027C355.116 53.895 355.064 54.0203 355.064 54.1508C355.064 54.2814 355.116 54.4065 355.209 54.4989C355.301 54.5912 355.426 54.643 355.557 54.643Z" fill="#00377D"/>
<path d="M355.557 68.0664H390.948C391.079 68.0664 391.204 68.0145 391.296 67.9222C391.389 67.8299 391.441 67.7047 391.441 67.5741C391.441 67.4436 391.389 67.3184 391.296 67.2261C391.204 67.1338 391.079 67.0819 390.948 67.0819H355.557C355.426 67.0819 355.301 67.1338 355.209 67.2261C355.116 67.3184 355.064 67.4436 355.064 67.5741C355.064 67.7047 355.116 67.8299 355.209 67.9222C355.301 68.0145 355.426 68.0664 355.557 68.0664Z" fill="#00377D"/>
<path d="M393.788 80.5051H355.561C355.431 80.5051 355.306 80.557 355.213 80.6493C355.121 80.7416 355.069 80.8668 355.069 80.9974C355.069 81.1279 355.121 81.2531 355.213 81.3454C355.306 81.4377 355.431 81.4896 355.561 81.4896H393.788C393.919 81.4896 394.044 81.4377 394.137 81.3454C394.229 81.2531 394.281 81.1279 394.281 80.9974C394.281 80.8668 394.229 80.7416 394.137 80.6493C394.044 80.557 393.919 80.5051 393.788 80.5051Z" fill="#00377D"/>
<path d="M393.788 94.5387H355.561C355.431 94.5387 355.306 94.5906 355.213 94.6829C355.121 94.7752 355.069 94.9004 355.069 95.0309C355.069 95.1615 355.121 95.2867 355.213 95.379C355.306 95.4713 355.431 95.5232 355.561 95.5232H393.788C393.919 95.5232 394.044 95.4713 394.137 95.379C394.229 95.2867 394.281 95.1615 394.281 95.0309C394.281 94.9004 394.229 94.7752 394.137 94.6829C394.044 94.5906 393.919 94.5387 393.788 94.5387Z" fill="#00377D"/>
<path fill-rule="evenodd" clip-rule="evenodd" d="M286.845 305.727C287.045 305.801 287.24 305.885 287.431 305.979L297.532 310.94C295.563 307.308 294.539 304.915 294.362 303.64C294.296 303.339 294.302 303.027 294.379 302.729C294.456 302.43 294.602 302.154 294.805 301.923C295.297 301.43 296.144 301.224 297.364 301.361H297.517L318.535 319.259C319.192 317.523 319.865 315.769 320.554 313.997L326.431 318.703L325.776 320.061L332.111 322.355H383.333L392.597 279.088L392.44 277.7C392.405 277.399 392.381 277.094 392.366 276.789C392.299 275.304 392.482 273.818 392.907 272.393H312.456C305.187 272.395 298.183 275.122 292.826 280.037C287.47 284.952 284.152 291.697 283.528 298.94V305.422C284.641 305.229 285.786 305.335 286.845 305.727Z" fill="#2854C3"/>
<path fill-rule="evenodd" clip-rule="evenodd" d="M321.189 399.178C322.031 398.628 322.915 398.144 323.832 397.731L363.029 379.947H335.764L335.71 379.514L330.679 345.5L317.211 337.846L316.823 338.648L309.572 337.664C310.256 336.645 310.896 335.655 311.497 334.681L283.528 323.359V435.097C284.908 427.762 288.633 421.073 294.142 416.037C299.651 411.001 306.647 407.89 314.076 407.172C315.679 403.913 318.137 401.15 321.189 399.178Z" fill="#2854C3"/>
<path fill-rule="evenodd" clip-rule="evenodd" d="M500.397 351.909L462.347 363.516L462.465 368.512H462.219L462.436 380.931C462.54 385.777 461.569 390.586 459.592 395.012C457.616 399.437 454.684 403.37 451.006 406.527H499.998C501.135 406.527 502.292 406.587 503.444 406.7V354.843C503.441 352.903 503.917 350.992 504.832 349.281C503.527 350.42 502.023 351.311 500.397 351.909Z" fill="#2854C3"/>
<path fill-rule="evenodd" clip-rule="evenodd" d="M505.905 272.393H473.762C474.445 273.318 475.075 274.281 475.647 275.278L508.051 331.816C508.351 332.383 508.614 332.968 508.839 333.568C509.493 335.326 509.793 337.196 509.72 339.07C509.647 340.944 509.204 342.785 508.415 344.486C508.228 344.9 508.017 345.298 507.795 345.687C509.899 343.963 512.537 343.024 515.257 343.029H534.947V301.435C534.947 293.733 531.887 286.346 526.441 280.899C520.994 275.453 513.607 272.393 505.905 272.393Z" fill="#2854C3"/>
<path fill-rule="evenodd" clip-rule="evenodd" d="M280.678 321.878C279.134 321.253 277.894 320.051 277.222 318.527C276.551 317.003 276.499 315.278 277.079 313.716L278.586 309.665C278.882 308.879 279.342 308.165 279.937 307.571C280.531 306.977 281.245 306.516 282.031 306.22V296.769C280.924 289.965 277.432 283.777 272.181 279.312C266.93 274.846 260.262 272.394 253.368 272.393H215.599L194.62 305.324C193.412 307.211 191.777 308.788 189.849 309.928C187.92 311.068 185.751 311.741 183.515 311.89H240.984L232.532 369.068L232.478 369.482H137.033V361.114H143.634L136.842 359.179C136.304 359.025 135.756 358.906 135.202 358.825L129.62 358.032L129.325 359.017L128.926 358.982L64.6601 353.273C64.056 353.219 63.4559 353.127 62.8634 352.997C62.9584 353.601 63.0061 354.212 63.0062 354.823V407.128C63.9414 407.049 64.8865 407 65.8464 407H140.243L138.564 394.62C139.713 381.494 145.784 374.439 156.777 373.454C173.267 371.977 174.744 390.19 174.744 390.19C174.744 390.19 174.941 395.314 175.236 407.02H176.22L180.65 393.277C181.699 390.024 183.312 386.982 185.415 384.288C191.805 376.127 198.589 373.605 205.769 376.723C214.301 380.424 217.255 389.097 214.63 402.742L212.729 407.02H248.481C256.286 407.022 263.86 409.674 269.961 414.543C276.063 419.411 280.331 426.207 282.066 433.817V322.434L280.678 321.878Z" fill="#2854C3"/>
<path fill-rule="evenodd" clip-rule="evenodd" d="M94.6274 272.393H59.9395C52.2372 272.393 44.8502 275.453 39.4038 280.899C33.9574 286.346 30.8976 293.733 30.8976 301.435V343.029H51.1925C51.5371 343.029 51.8718 343.029 52.2065 343.073C51.2106 339.68 51.5142 336.037 53.0581 332.855L73.668 290.266C75.7383 286.002 78.6694 282.212 82.2767 279.136C85.8839 276.06 90.0891 273.764 94.6274 272.393Z" fill="#2854C3"/>
<path fill-rule="evenodd" clip-rule="evenodd" d="M99.5153 301.032L78.2654 333.091L107.696 338.043L99.5153 301.032Z" fill="#2854C3"/>
<path fill-rule="evenodd" clip-rule="evenodd" d="M142.448 272.393L179.892 285.113L189.717 272.393H142.448Z" fill="#2854C3"/>
<path fill-rule="evenodd" clip-rule="evenodd" d="M155.054 347.1L158.008 350.142L163.663 311.89H181.561C180.499 311.819 179.449 311.627 178.43 311.319L146.898 301.814L147.39 331.777L111.89 338.254L134.484 342.05L133.918 343.89L135.946 344.245C138.611 344.666 141.339 344.458 143.91 343.639L149.078 341.986C151.188 341.31 153.386 340.952 155.601 340.922H155.783C156.046 340.911 156.309 340.953 156.556 341.045C156.803 341.137 157.029 341.278 157.22 341.459C157.407 341.638 157.556 341.852 157.658 342.09C157.761 342.328 157.814 342.583 157.816 342.842C157.822 343.291 157.674 343.729 157.397 344.082L155.054 347.1Z" fill="#2854C3"/>
<path fill-rule="evenodd" clip-rule="evenodd" d="M155.738 368.99H137.526V361.606L146.504 361.424L136.974 358.687C136.416 358.525 135.847 358.402 135.271 358.318L129.497 357.501L128.966 358.441L104.674 356.31L100.244 380.429C99.2653 385.925 100.25 391.591 103.026 396.435C105.802 401.278 110.192 404.992 115.429 406.926L116.724 407.246H140.287L138.564 394.62C139.713 381.494 145.784 374.439 156.777 373.454C173.267 371.977 174.744 390.19 174.744 390.19C174.744 390.19 174.941 395.383 175.236 407.246H176.151L180.655 393.276C181.704 390.024 183.317 386.982 185.42 384.288C190.976 377.19 196.832 374.358 202.988 375.792C202.988 375.748 203.032 375.709 203.052 375.669L190.697 368.99H155.738Z" fill="#4ABFB0"/>
<path fill-rule="evenodd" clip-rule="evenodd" d="M135.896 344.727C138.641 345.169 141.45 344.956 144.097 344.107L149.266 342.453C149.94 342.238 150.625 342.058 151.318 341.912L146.553 331.437L109.079 338.274L133.888 342.443L133.396 344.294L135.896 344.727Z" fill="#4ABFB0"/>
<path fill-rule="evenodd" clip-rule="evenodd" d="M661.442 439.414C661.442 439.65 661.442 439.906 661.442 440.137C661.442 443.111 662.623 445.963 664.726 448.066C666.829 450.169 669.681 451.35 672.655 451.35C675.629 451.35 678.481 450.169 680.584 448.066C682.686 445.963 683.868 443.111 683.868 440.137C683.868 439.891 683.868 439.645 683.843 439.414V390.19H706.85V439.414C706.85 439.65 706.85 439.906 706.85 440.137C706.85 449.21 703.246 457.912 696.83 464.328C690.415 470.743 681.713 474.348 672.64 474.348C663.567 474.348 654.865 470.743 648.45 464.328C642.034 457.912 638.43 449.21 638.43 440.137C638.43 439.891 638.43 439.645 638.43 439.414V390.19H661.442V439.414Z" fill="#CAD9FF"/>
<path fill-rule="evenodd" clip-rule="evenodd" d="M246.197 42.0617H127.076C117.154 42.0617 107.638 46.003 100.623 53.0188C93.607 60.0345 89.6656 69.5498 89.6656 79.4716V146.736C89.6656 156.657 93.607 166.173 100.623 173.188C107.638 180.204 117.154 184.145 127.076 184.145H127.671V213.478L156.984 184.165H246.216C251.129 184.165 255.994 183.197 260.532 181.317C265.071 179.437 269.195 176.682 272.669 173.208C276.143 169.734 278.898 165.61 280.778 161.071C282.658 156.533 283.626 151.668 283.626 146.755V79.4716C283.626 74.5572 282.658 69.6909 280.777 65.1508C278.895 60.6108 276.138 56.4859 272.662 53.0118C269.186 49.5377 265.06 46.7825 260.519 44.9036C255.978 43.0248 251.111 42.0591 246.197 42.0617Z" fill="#CAD9FF"/>
<path d="M226.374 107.091H116.168C116.037 107.091 115.912 107.039 115.82 106.947C115.727 106.854 115.675 106.729 115.675 106.599C115.675 106.468 115.727 106.343 115.82 106.251C115.912 106.158 116.037 106.106 116.168 106.106H226.389C226.52 106.106 226.645 106.158 226.737 106.251C226.829 106.343 226.881 106.468 226.881 106.599C226.881 106.729 226.829 106.854 226.737 106.947C226.645 107.039 226.52 107.091 226.389 107.091H226.374Z" fill="#00377D"/>
<path d="M257.1 120.381H116.168C116.037 120.381 115.912 120.329 115.82 120.237C115.727 120.145 115.675 120.02 115.675 119.889C115.675 119.758 115.727 119.633 115.82 119.541C115.912 119.449 116.037 119.397 116.168 119.397H257.114C257.245 119.397 257.37 119.449 257.462 119.541C257.555 119.633 257.607 119.758 257.607 119.889C257.607 120.02 257.555 120.145 257.462 120.237C257.37 120.329 257.245 120.381 257.114 120.381H257.1Z" fill="#00377D"/>
<path d="M176.22 81.2485H116.168C116.037 81.2485 115.912 81.1967 115.82 81.1043C115.727 81.012 115.675 80.8868 115.675 80.7563C115.675 80.6257 115.727 80.5005 115.82 80.4082C115.912 80.3159 116.037 80.264 116.168 80.264H176.22C176.351 80.264 176.476 80.3159 176.568 80.4082C176.661 80.5005 176.713 80.6257 176.713 80.7563C176.713 80.8868 176.661 81.012 176.568 81.1043C176.476 81.1967 176.351 81.2485 176.22 81.2485Z" fill="#00377D"/>
<path d="M226.374 145.943H116.168C116.037 145.943 115.912 145.891 115.82 145.799C115.727 145.706 115.675 145.581 115.675 145.451C115.675 145.32 115.727 145.195 115.82 145.103C115.912 145.01 116.037 144.958 116.168 144.958H226.389C226.52 144.958 226.645 145.01 226.737 145.103C226.829 145.195 226.881 145.32 226.881 145.451C226.881 145.581 226.829 145.706 226.737 145.799C226.645 145.891 226.52 145.943 226.389 145.943H226.374Z" fill="#00377D"/>
<path d="M257.1 133.145H116.168C116.037 133.145 115.912 133.093 115.82 133.001C115.727 132.908 115.675 132.783 115.675 132.653C115.675 132.522 115.727 132.397 115.82 132.305C115.912 132.212 116.037 132.16 116.168 132.16H257.114C257.245 132.16 257.37 132.212 257.462 132.305C257.555 132.397 257.607 132.522 257.607 132.653C257.607 132.783 257.555 132.908 257.462 133.001C257.37 133.093 257.245 133.145 257.114 133.145H257.1Z" fill="#00377D"/>
<path d="M711.625 484.699H723.586C723.978 484.699 724.354 484.544 724.631 484.267C724.907 483.99 725.063 483.614 725.063 483.223V476.331C725.063 475.94 724.907 475.564 724.631 475.287C724.354 475.01 723.978 474.855 723.586 474.855H622.678C622.286 474.855 621.911 475.01 621.634 475.287C621.357 475.564 621.201 475.94 621.201 476.331V483.223C621.201 483.614 621.357 483.99 621.634 484.267C621.911 484.544 622.286 484.699 622.678 484.699H633.67L616.771 621.728C616.756 621.857 616.792 621.987 616.873 622.09C616.953 622.192 617.07 622.258 617.199 622.274H617.258C617.379 622.275 617.496 622.232 617.587 622.152C617.678 622.072 617.736 621.961 617.751 621.841L634.659 484.699H710.631L728.016 623.077C728.031 623.197 728.089 623.307 728.18 623.387C728.271 623.467 728.388 623.511 728.509 623.51H728.568C728.632 623.502 728.694 623.481 728.751 623.449C728.807 623.417 728.857 623.374 728.896 623.323C728.936 623.272 728.966 623.213 728.983 623.151C729 623.088 729.004 623.023 728.996 622.959L711.625 484.699ZM622.186 483.223V476.331C622.186 476.201 622.238 476.076 622.33 475.983C622.422 475.891 622.547 475.839 622.678 475.839H723.586C723.717 475.839 723.842 475.891 723.934 475.983C724.027 476.076 724.079 476.201 724.079 476.331V483.223C724.079 483.353 724.027 483.479 723.934 483.571C723.842 483.663 723.717 483.715 723.586 483.715H711.28C711.201 483.676 711.113 483.659 711.024 483.666C710.975 483.676 710.927 483.693 710.882 483.715H634.433C634.387 483.693 634.339 483.676 634.29 483.666C634.202 483.659 634.113 483.676 634.034 483.715H622.678C622.547 483.715 622.422 483.663 622.33 483.571C622.238 483.479 622.186 483.353 622.186 483.223Z" fill="#00377D"/>
<path fill-rule="evenodd" clip-rule="evenodd" d="M554.144 342.537H515.257C512.782 342.533 510.363 343.281 508.322 344.683C508.351 344.619 508.386 344.555 508.415 344.486C509.341 342.491 509.79 340.307 509.726 338.108C509.662 335.909 509.087 333.755 508.046 331.816L475.647 275.278C472.805 270.344 468.623 266.316 463.586 263.661C458.549 261.006 452.863 259.832 447.186 260.275L432.335 261.259C432.335 261.111 432.335 260.964 432.335 260.811L431.415 247.442H431.602C433.005 247.408 434.337 246.819 435.305 245.804C436.273 244.788 436.799 243.43 436.766 242.027C436.776 241.02 436.505 240.03 435.983 239.168C435.461 238.306 434.71 237.607 433.812 237.149C433.583 235.396 433.007 233.705 432.118 232.177C431.229 230.648 430.045 229.311 428.634 228.245C427.244 227.232 425.66 226.519 423.981 226.15C422.301 225.78 420.564 225.763 418.878 226.099C411.307 227.497 408.216 231.715 408.216 240.649C408.216 246.866 408.216 252.399 412.804 254.25C412.782 254.299 412.771 254.353 412.769 254.407L412.646 261.791C412.646 261.978 412.646 262.155 412.676 262.332L405.031 262.883C402.275 263.011 399.627 263.994 397.455 265.694C395.283 267.395 393.693 269.729 392.907 272.374C392.655 273.219 392.49 274.089 392.415 274.968L383.328 322.336H332.136L325.801 320.042L326.456 318.683L320.578 313.977C319.892 315.743 319.22 317.497 318.56 319.239L297.542 301.342H297.389C296.168 301.204 295.331 301.386 294.829 301.903C294.626 302.135 294.48 302.411 294.403 302.709C294.327 303.008 294.321 303.32 294.386 303.621C294.564 304.896 295.602 307.288 297.556 310.921L287.456 305.974C287.265 305.88 287.069 305.796 286.87 305.723C285.28 305.132 283.52 305.197 281.978 305.903C280.436 306.609 279.237 307.899 278.645 309.488L277.134 313.539C276.499 315.221 276.55 317.084 277.275 318.728C278.001 320.372 279.343 321.666 281.012 322.331L311.531 334.681C310.93 335.665 310.291 336.65 309.606 337.664L316.857 338.648L317.246 337.846L330.713 345.5L335.744 379.514L335.798 379.947H363.063L323.866 397.731C322.949 398.144 322.065 398.628 321.223 399.179C318.334 401.047 315.975 403.627 314.371 406.67H314.312C306.615 407.357 299.362 410.577 293.688 415.824C288.015 421.072 284.241 428.052 282.957 435.673C281.573 427.532 277.356 420.142 271.051 414.811C264.745 409.479 256.758 406.549 248.5 406.537H213.507L215.097 402.954L215.132 402.846C217.795 389.004 214.723 380.07 206.001 376.265C198.617 373.06 191.578 375.655 185.066 383.983C182.899 386.721 181.237 389.823 180.158 393.144L175.728 406.976C175.448 395.423 175.236 390.24 175.236 390.151C175.206 389.792 174.448 381.261 168.551 376.29C165.431 373.661 161.453 372.539 156.738 372.962C145.525 373.947 139.249 381.241 138.077 394.576V394.63L139.687 406.528H65.8513C65.1179 406.528 64.345 406.557 63.5033 406.616V354.843C63.5017 354.266 63.4606 353.691 63.3803 353.12C63.8036 353.194 64.2269 353.258 64.665 353.292L128.926 358.933L129.325 358.968L129.62 357.983L135.202 358.776C135.756 358.857 136.304 358.975 136.841 359.13L143.639 361.099H137.033V369.467H232.468L232.522 369.054L240.974 311.876H183.505C185.741 311.726 187.91 311.054 189.839 309.913C191.768 308.773 193.402 307.196 194.61 305.309L225.277 257.173L222.727 254.811L223.278 254.2L236.568 238.798C236.932 238.381 237.238 237.918 237.479 237.42C237.847 236.664 238.062 235.844 238.113 235.005C238.164 234.166 238.049 233.325 237.774 232.531C237.5 231.736 237.072 231.004 236.515 230.375C235.957 229.746 235.281 229.233 234.526 228.865L230.297 226.803L235.102 217.942C235.446 217.296 235.545 216.546 235.378 215.833C235.211 215.119 234.791 214.49 234.196 214.063C233.619 213.658 232.906 213.499 232.212 213.62C231.518 213.741 230.9 214.132 230.494 214.708L224.243 223.569L224.194 223.647L211.445 244.351L211.376 244.287L179.873 285.054L139.672 271.404C136.361 268.988 132.277 267.875 128.198 268.278L124.053 268.859L123.851 258.867C125.155 258.855 126.455 258.713 127.73 258.443C131.348 257.607 133.637 256.169 134.695 254.053C135.975 251.513 135.557 248.116 133.342 243.027C131.796 239.478 130.388 236.573 128.419 234.511C128.733 233.762 128.849 232.945 128.756 232.138C128.663 231.331 128.364 230.562 127.888 229.904C127.245 229.034 126.333 228.4 125.294 228.1C124.255 227.8 123.146 227.851 122.138 228.245C117.954 229.886 115.108 231.046 113.598 231.725L112.259 232.345C110.274 233.27 108.571 234.707 107.327 236.51C106.082 238.312 105.342 240.414 105.181 242.598C105.096 243.754 104.898 244.898 104.59 246.014C103.934 248.453 102.075 253.244 99.0132 260.388C98.6981 261.128 98.5904 261.94 98.7017 262.736C98.8131 263.533 99.1392 264.284 99.6451 264.91C100.151 265.535 100.818 266.011 101.574 266.286C102.329 266.561 103.146 266.625 103.936 266.472L107.755 265.719L108.169 271.133C101.148 270.387 94.0689 271.824 87.8949 275.248C81.7209 278.672 76.7529 283.916 73.668 290.266L53.0581 332.845C51.5939 335.866 51.2452 339.308 52.0736 342.562C51.7783 342.562 51.4829 342.527 51.1974 342.527H12.3059C9.04216 342.527 5.91211 343.824 3.60431 346.131C1.29651 348.439 0 351.569 0 354.833V614.241C0 617.505 1.29651 620.635 3.60431 622.943C5.91211 625.251 9.04216 626.547 12.3059 626.547H51.1925C54.4562 626.547 57.5863 625.251 59.8941 622.943C62.2019 620.635 63.4984 617.505 63.4984 614.241V528.016C64.3401 528.075 65.1129 528.105 65.8464 528.105H136.674L131.038 545.579L122.67 565.392L115.675 574.286L107.553 587.085L109.158 588.207L112.476 590.53L116.168 583.147L128.473 610.712L136.103 616.126C146.603 616.126 147.813 616.126 151.116 616.126C151.609 616.126 146.032 612.189 137.334 604.313L140.1 574.695L146.593 557.034L156.93 533.795L160.257 558.407L160.301 558.594C160.754 575.236 160.907 577.85 160.907 577.875C160.916 577.978 160.957 578.077 161.025 578.155L157.771 587.592L155.34 601.049L161.143 602.605L162.359 592.996L177.973 611.75L200.507 615.437C200.997 615.511 201.498 615.461 201.963 615.291C202.428 615.121 202.843 614.836 203.17 614.464C203.496 614.091 203.724 613.642 203.831 613.159C203.939 612.675 203.923 612.172 203.786 611.696L193.719 603.328L180.158 573.425L179.174 558.781H179.208V558.289C178.957 547.514 178.716 537.526 178.48 528.12H248.5C256.758 528.108 264.747 525.177 271.052 519.844C277.358 514.512 281.575 507.121 282.957 498.979C284.339 507.121 288.556 514.512 294.861 519.844C301.167 525.177 309.155 528.108 317.413 528.12H321.243L326.273 601.497L326.303 601.955H334.046L333.839 604.49C329.675 606.042 327.023 607.179 325.885 607.901C322.001 610.362 320.883 612.272 317.024 612.986C298.925 616.368 299.929 620.32 300.352 622.526C300.631 623.992 302.459 625.175 305.836 626.074H358.264V620.97L355.478 605.607L355.921 601.955H358.736V528.12H380.178L420.581 590.407L420.871 590.86L427.093 585.987L429.869 590.624C427.326 594.187 425.785 596.581 425.247 597.805C423.406 602.024 423.544 604.204 420.768 606.961C407.65 619.882 410.697 622.604 412.277 624.189C413.337 625.249 415.514 625.208 418.809 624.066L438.813 610.569L449.362 603.456L462.278 594.749L459.423 590.515L447.934 578.717L444.759 572.106L448.944 568.828L426.301 528.09H500.008C500.992 528.09 501.977 528.041 502.961 527.957V614.231C502.961 617.495 504.258 620.625 506.566 622.933C508.874 625.241 512.004 626.537 515.267 626.537H554.154C557.418 626.537 560.548 625.241 562.855 622.933C565.163 620.625 566.46 617.495 566.46 614.231V354.823C566.455 351.561 565.154 348.435 562.845 346.131C560.536 343.827 557.406 342.534 554.144 342.537ZM316.242 325.309C315.091 328.267 313.676 331.116 312.013 333.819L281.357 321.41C279.925 320.84 278.774 319.73 278.153 318.32C277.531 316.909 277.489 315.311 278.034 313.869L279.541 309.823C280.041 308.477 281.055 307.385 282.36 306.787C283.665 306.189 285.155 306.134 286.501 306.633C286.669 306.696 286.833 306.768 286.993 306.85L299.885 313.16L299.132 311.797C296.789 307.559 295.514 304.763 295.332 303.473C295.291 303.321 295.285 303.162 295.315 303.008C295.345 302.854 295.41 302.708 295.504 302.582C295.755 302.321 296.311 302.223 297.104 302.292L318.161 320.219C317.515 321.942 316.875 323.643 316.242 325.323V325.309ZM155.281 368.483H138.018V362.084H156.162L155.281 368.483ZM146.844 361.099C146.785 361.022 146.705 360.965 146.612 360.937L137.112 358.195C136.531 358.028 135.939 357.899 135.34 357.811L129.926 357.043L133.686 344.826L135.842 345.2C138.663 345.647 141.549 345.428 144.269 344.56L149.438 342.911C151.453 342.263 153.553 341.92 155.67 341.892H155.852C155.981 341.889 156.11 341.912 156.231 341.96C156.352 342.007 156.462 342.078 156.556 342.168C156.73 342.337 156.836 342.565 156.852 342.808C156.868 343.051 156.794 343.291 156.644 343.482L153.765 347.154L157.865 351.353L156.423 361.099H146.868H146.844ZM231.577 368.483H156.265L157.21 362.084H232.414L231.577 368.483ZM239.807 312.86L232.675 361.099H157.363L158.795 351.382C158.824 351.316 158.835 351.243 158.83 351.171L164.49 312.86H239.807ZM212.286 244.887L225.055 224.159L231.306 215.299C231.561 214.937 231.949 214.691 232.384 214.615C232.605 214.578 232.831 214.585 233.049 214.635C233.267 214.686 233.473 214.779 233.654 214.91C234.048 215.199 234.324 215.619 234.431 216.095C234.539 216.571 234.471 217.07 234.24 217.499L228.973 227.26L234.122 229.771C235.412 230.401 236.4 231.517 236.867 232.875C237.334 234.233 237.243 235.721 236.613 237.012C236.41 237.433 236.152 237.825 235.845 238.178L222.554 253.58L222.023 254.171L212.178 245.06C212.233 245.017 212.278 244.963 212.311 244.902L212.286 244.887ZM180.217 286.235L211.489 245.763L221.619 255.116L221.664 255.15L223.972 257.287L193.749 304.728C192.188 307.166 189.876 309.03 187.162 310.038C184.448 311.046 181.48 311.143 178.706 310.315L157.826 304.02L148.389 275.45L180.217 286.235ZM178.426 311.285C179.444 311.593 180.494 311.784 181.556 311.856H163.658L158.008 350.142L155.054 347.1L157.402 344.102C157.679 343.749 157.827 343.311 157.821 342.862C157.821 342.599 157.768 342.34 157.665 342.099C157.562 341.857 157.41 341.64 157.22 341.459C156.846 341.096 156.343 340.896 155.822 340.903H155.64C153.425 340.933 151.227 341.291 149.118 341.966L143.949 343.62C141.378 344.439 138.651 344.646 135.985 344.225L133.957 343.871L134.523 342.03L110.65 338.018L147.429 331.762L146.937 301.795L178.426 311.285ZM112.092 264.872C113.372 264.62 114.5 263.869 115.228 262.786C115.955 261.702 116.222 260.374 115.971 259.093C115.901 258.738 115.792 258.391 115.646 258.06L114.292 254.988C114.287 254.866 114.236 254.75 114.149 254.663L114.081 254.506C113.81 254.46 113.545 254.389 113.288 254.294C112.581 253.964 111.96 253.476 111.473 252.866C110.986 252.256 110.647 251.542 110.482 250.779C109.862 248.107 111.383 245.463 113.869 244.873C114.731 244.672 115.634 244.739 116.458 245.064C116.518 245.088 116.582 245.1 116.647 245.099C116.712 245.099 116.776 245.085 116.835 245.059C116.895 245.034 116.948 244.997 116.993 244.95C117.039 244.904 117.074 244.849 117.098 244.789C117.117 244.73 117.127 244.669 117.127 244.607H117.177C119.146 244.279 122.616 241.376 127.587 235.899C127.714 235.757 127.832 235.607 127.942 235.451C129.625 237.331 130.954 239.994 132.461 243.45C134.518 248.18 134.956 251.414 133.834 253.639C132.909 255.48 130.846 256.745 127.528 257.513C125.32 257.934 123.064 258.05 120.824 257.858C120.759 257.854 120.695 257.862 120.633 257.884C120.572 257.905 120.516 257.938 120.467 257.981C120.419 258.024 120.379 258.076 120.351 258.134C120.323 258.192 120.306 258.256 120.302 258.32C120.299 258.418 120.325 258.513 120.376 258.596L122.99 269.041L109.163 271.01L108.745 265.537L112.092 264.872ZM62.5139 614.251C62.5139 617.254 61.3211 620.133 59.1979 622.257C57.0748 624.38 54.1951 625.572 51.1925 625.572H12.3059C9.30326 625.572 6.42363 624.38 4.30045 622.257C2.17727 620.133 0.984471 617.254 0.984471 614.251V354.843C0.984471 351.84 2.17727 348.961 4.30045 346.837C6.42363 344.714 9.30326 343.521 12.3059 343.521H51.1925C51.5839 343.521 51.975 343.543 52.364 343.585L52.428 343.763C52.492 343.935 52.5511 344.107 52.62 344.255C52.6889 344.403 52.7037 344.467 52.748 344.57C52.7923 344.673 52.871 344.86 52.9399 345.003C53.0088 345.146 53.0335 345.215 53.0827 345.318C53.191 345.535 53.3042 345.751 53.4223 345.963C53.4765 346.066 53.5405 346.17 53.5995 346.268C53.6586 346.367 53.7521 346.524 53.8309 346.647C53.9096 346.77 53.9687 346.864 54.0376 346.967L54.2838 347.321C54.3527 347.42 54.4216 347.518 54.4954 347.612C54.5692 347.705 54.7267 347.917 54.8449 348.065L55.0221 348.276C55.1747 348.459 55.3322 348.631 55.5143 348.808L55.6915 348.99L56.1001 349.399L56.2773 349.561C56.4447 349.719 56.6169 349.866 56.7941 350.014L56.8778 350.088C57.0993 350.27 57.3258 350.442 57.5571 350.61C57.7786 350.772 58.005 350.925 58.2364 351.072L58.3496 351.141C58.5563 351.274 58.7729 351.402 58.9895 351.52L59.0781 351.574C59.5816 351.849 60.101 352.094 60.6336 352.308L60.7074 352.337C60.9437 352.426 61.1997 352.515 61.4212 352.593L61.5738 352.643C61.81 352.721 62.066 352.79 62.2973 352.854H62.3613C62.4751 353.504 62.5311 354.163 62.5287 354.823L62.5139 614.251ZM61.2686 351.525L61.1406 351.476C60.9076 351.387 60.6812 351.294 60.4613 351.195L60.3875 351.161C59.8889 350.935 59.4055 350.677 58.9403 350.388L58.8271 350.314C58.6253 350.186 58.4284 350.058 58.2364 349.921L58.1478 349.857C57.9312 349.699 57.7146 349.537 57.503 349.364L57.4537 349.32C57.2716 349.172 57.0993 349.015 56.9271 348.857L56.7597 348.705L56.3511 348.296L56.1936 348.139C56.0262 347.956 55.8687 347.774 55.7014 347.587L55.534 347.381C55.4307 347.253 55.3322 347.125 55.2338 346.992C55.1353 346.859 55.1009 346.81 55.0369 346.721C54.9729 346.632 54.8646 346.47 54.7858 346.347C54.7071 346.224 54.6628 346.17 54.6086 346.081C54.4856 345.884 54.3674 345.682 54.2591 345.481C54.205 345.387 54.1558 345.289 54.1065 345.195L53.8998 344.782L53.7669 344.486C53.6881 344.319 53.6192 344.152 53.5503 343.994L53.4716 343.797C53.3797 343.554 53.296 343.313 53.2205 343.074C52.2042 339.843 52.4595 336.346 53.9343 333.298L74.5442 290.719C77.5447 284.501 82.4048 279.369 88.4514 276.035C94.4979 272.702 101.432 271.331 108.292 272.113H108.351L128.35 269.297C132.034 268.937 135.727 269.891 138.776 271.99C138.802 272.053 138.842 272.111 138.892 272.158C138.942 272.206 139.001 272.242 139.066 272.265L139.258 272.334C139.485 272.497 139.706 272.669 139.918 272.827C141.524 274.145 142.852 275.769 143.825 277.604C144.798 279.439 145.398 281.449 145.589 283.518C145.628 283.926 145.653 284.34 145.662 284.749L146.455 330.925L108.095 337.447L99.7663 299.762L77.4582 333.421L133.253 342.837L128.611 357.914L64.7438 352.313C64.1105 352.258 63.4821 352.158 62.8634 352.013C62.3217 351.885 61.7889 351.722 61.2686 351.525ZM107.046 337.432L79.0826 332.732L99.2642 302.267L107.046 337.432ZM139.042 394.611C140.189 381.67 145.997 374.921 156.802 373.937C161.232 373.533 164.978 374.577 167.892 377.028C173.479 381.734 174.227 390.136 174.232 390.2C174.237 390.264 174.458 396.205 174.773 409.53C174.773 409.591 174.787 409.652 174.813 409.707L151.057 483.405L139.042 394.611ZM65.8464 527.125C65.1179 527.125 64.3401 527.096 63.4984 527.032V407.606C64.3401 407.542 65.1179 407.512 65.8464 407.512H139.795L150.348 485.507C150.348 485.507 150.348 485.541 150.348 485.561L136.95 527.125H65.8464ZM145.352 557.304L145.416 557.354L139.125 574.464L136.541 602.127L123.472 566.081L131.963 545.924L181.118 393.429C182.145 390.23 183.732 387.239 185.804 384.594C192.095 376.555 198.563 374.129 205.572 377.176C213.803 380.749 216.687 389.299 214.142 402.595L176.683 486.846C176.614 486.89 176.557 486.951 176.517 487.024C176.478 487.096 176.457 487.177 176.457 487.259V487.348L145.352 557.304ZM179.179 573.671L192.469 602.979L182.132 601.852L161.749 578.111C161.832 578.014 161.874 577.889 161.867 577.762C161.867 577.762 161.709 575.084 161.251 558.274L161.197 557.782H161.148L157.702 532.245C157.696 532.19 157.677 532.138 157.648 532.092L176.53 489.632C176.742 498.576 176.969 507.844 177.215 517.689C177.293 520.862 177.374 524.103 177.456 527.411C177.434 527.466 177.422 527.524 177.421 527.583C177.423 527.651 177.438 527.718 177.466 527.78C177.697 537.132 177.958 547.061 178.194 557.762H178.111L179.179 573.671ZM282.43 493.161C282.421 502.166 278.84 510.8 272.472 517.167C266.104 523.535 257.471 527.116 248.466 527.125H178.421C178.342 523.916 178.263 520.78 178.184 517.699C177.919 507.067 177.692 497.133 177.446 487.545L213.035 407.512H248.476C257.481 407.521 266.114 411.102 272.482 417.47C278.849 423.838 282.431 432.471 282.44 441.476L282.43 493.161ZM431.824 263.637L436.254 279.388L423.17 269.593C425.84 269.187 428.311 267.94 430.224 266.034C430.9 265.34 431.442 264.527 431.824 263.637ZM422.048 268.702C418.518 268.702 413.631 266.304 413.631 261.81L413.665 259.935L422.909 253.595C425.84 252.371 428.433 250.46 430.47 248.023L431.351 260.821C431.377 261.659 431.227 262.493 430.91 263.27C430.594 264.046 430.119 264.748 429.515 265.33C427.531 267.343 424.869 268.545 422.048 268.702ZM409.2 240.644C409.2 237.199 409.693 234.536 410.677 232.488L427.024 232.936L428.88 238.168C429.411 237.846 430.002 237.639 430.618 237.558L430.75 237.519C431.14 237.479 431.532 237.479 431.922 237.519C432.254 237.568 432.583 237.639 432.906 237.73V237.814L433.167 237.927C433.952 238.282 434.616 238.858 435.079 239.584C435.541 240.311 435.782 241.156 435.771 242.018C435.803 243.159 435.381 244.266 434.598 245.097C433.814 245.927 432.733 246.413 431.592 246.448C431.341 246.447 431.091 246.424 430.844 246.379L430.539 246.32L430.352 246.571C427.157 250.971 421.688 253.954 416.751 253.954C409.2 253.935 409.2 248.367 409.2 240.659V240.644ZM413.079 264.222C413.651 265.656 414.645 266.881 415.929 267.737C417.439 268.763 419.176 269.405 420.989 269.607L408.063 279.329L413.079 264.222ZM405.09 263.873L412.331 263.351L406.094 282.007L421.354 270.548L422.053 287.087C422.053 287.217 422.105 287.342 422.197 287.435C422.289 287.527 422.414 287.579 422.545 287.579C422.675 287.579 422.801 287.527 422.893 287.435C422.985 287.342 423.037 287.217 423.037 287.087L422.328 270.267L437.932 281.972L432.449 262.209L447.255 261.249C452.751 260.814 458.258 261.946 463.137 264.513C468.016 267.081 472.067 270.979 474.82 275.755L507.214 332.279C507.49 332.804 507.732 333.347 507.938 333.903C509.159 337.205 509.02 340.856 507.552 344.056C506.083 347.255 503.406 349.742 500.106 350.969L443.78 368.148C442.185 365.278 440.595 362.433 439.035 359.667C437.346 356.562 435.962 353.301 434.9 349.93L475.47 332.55C475.535 332.522 475.594 332.48 475.641 332.427C475.689 332.374 475.724 332.312 475.746 332.244C475.767 332.177 475.774 332.105 475.766 332.035C475.757 331.964 475.734 331.896 475.697 331.836L453.546 296.395C453.512 296.34 453.467 296.292 453.414 296.255C453.362 296.217 453.302 296.19 453.239 296.175C453.176 296.161 453.11 296.159 453.047 296.169C452.983 296.18 452.922 296.203 452.867 296.237C452.812 296.272 452.764 296.316 452.726 296.369C452.689 296.422 452.662 296.481 452.647 296.544C452.633 296.607 452.63 296.673 452.641 296.737C452.652 296.8 452.675 296.862 452.709 296.917L461.801 311.457L461.338 337.546L434.595 349.005C434.363 348.267 434.132 347.528 433.911 346.741L433.694 345.983L427.428 351.678L428.412 353.834L421.693 355.502C417.637 356.511 413.761 358.138 410.2 360.326L404.583 322.36H398.603L393.454 277.567C393.419 277.286 393.4 277.006 393.385 276.725C393.241 273.469 394.394 270.288 396.592 267.881C398.791 265.475 401.854 264.038 405.11 263.888L405.09 263.873ZM461.461 367.547L447.186 368.128L461.387 363.797L461.461 367.547ZM430.396 371.559H411.829L410.318 361.36C413.892 359.117 417.8 357.455 421.895 356.438L428.786 354.725L435.963 370.629L430.386 371.505L430.396 371.559ZM430.214 372.544V378.943H412.927L412.07 372.544H430.214ZM428.594 351.899L433.162 347.75C434.361 352.052 436.035 356.208 438.154 360.139C439.714 362.906 441.304 365.751 442.894 368.621C442.886 368.669 442.886 368.719 442.894 368.768C442.894 368.768 442.894 368.808 442.894 368.827C442.894 368.847 442.894 368.872 442.894 368.896V368.931C442.892 368.945 442.892 368.96 442.894 368.975C442.913 369.013 442.938 369.048 442.968 369.078L443.012 369.123L443.106 369.187L443.189 369.216L443.681 370.097L437.341 371.362L428.594 351.899ZM462.308 337.098L462.731 312.978L474.545 331.855L462.308 337.098ZM335.532 371.554L328.4 323.315H403.712L410.84 371.554H335.532ZM336.63 378.938L335.774 372.539H410.977L411.922 378.938H386.528C386.459 378.884 386.377 378.85 386.291 378.839C386.204 378.828 386.116 378.84 386.036 378.874L385.893 378.938H336.63ZM317.379 527.101C308.374 527.092 299.74 523.51 293.372 517.143C287.005 510.775 283.424 502.142 283.414 493.136V441.452C283.416 433.06 286.524 424.966 292.139 418.73C297.754 412.494 305.479 408.558 313.825 407.679C312.513 410.546 311.891 413.679 312.008 416.829C312.125 419.979 312.978 423.058 314.499 425.818C314.388 427.15 314.378 428.487 314.47 429.82L321.139 527.101H317.379ZM354.547 605.017C351.827 607.281 348.191 608.231 343.64 607.867C339.373 607.522 336.405 606.616 334.735 605.15L334.996 601.921H354.902L354.547 605.017ZM355.625 600.936C355.597 600.923 355.567 600.914 355.537 600.906C355.462 600.899 355.386 600.909 355.315 600.936H334.72C334.686 600.922 334.649 600.912 334.612 600.906C334.543 600.902 334.475 600.912 334.41 600.936H327.189L315.449 429.751C315.103 424.517 316.368 419.302 319.074 414.808C321.78 410.314 325.797 406.756 330.585 404.613L386.1 379.922H431.198V372.366L436.387 371.549L436.82 372.534L445.247 370.845L444.922 370.26C444.73 369.92 444.543 369.58 444.356 369.241L461.235 368.557L461.451 380.951C461.599 387.803 459.531 394.519 455.555 400.101C451.579 405.683 445.908 409.832 439.384 411.932L358.106 438.449L357.767 438.557V493.54V527.455C357.749 527.506 357.739 527.559 357.737 527.613C357.739 527.665 357.749 527.716 357.767 527.765V600.956L355.625 600.936ZM358.736 527.101V495.041L379.533 527.101H358.736ZM447.339 579.721C446.285 582.96 443.839 585.66 440 587.823C436.219 589.956 433.215 590.862 430.987 590.54L427.881 585.337L443.972 572.726L447.339 579.721ZM447.683 568.567L444.031 571.427C443.991 571.432 443.951 571.442 443.913 571.456C443.809 571.508 443.727 571.595 443.681 571.702L421.117 589.388L380.912 527.401L363.27 500.23L373.262 434.762L447.683 568.567ZM502.957 526.963C501.972 527.051 500.988 527.101 500.003 527.101H425.74L374.099 434.27L439.689 412.872C443.369 411.675 446.811 409.842 449.859 407.458C449.924 407.489 449.994 407.506 450.066 407.507H499.998C500.983 407.507 501.967 407.556 502.952 407.645L502.957 526.963ZM502.957 406.636C501.972 406.552 500.988 406.503 500.003 406.503H451.011C454.689 403.346 457.621 399.413 459.597 394.987C461.573 390.561 462.545 385.753 462.441 380.907L462.209 368.532H462.455L462.337 363.536L500.387 351.929C501.655 351.463 502.85 350.818 503.936 350.014C503.281 351.546 502.946 353.196 502.952 354.863L502.957 406.636ZM565.47 614.226C565.47 617.229 564.278 620.109 562.154 622.232C560.031 624.355 557.152 625.548 554.149 625.548H515.262C512.26 625.548 509.38 624.355 507.257 622.232C505.134 620.109 503.941 617.229 503.941 614.226V354.818C503.941 351.816 505.134 348.936 507.257 346.813C509.38 344.69 512.26 343.497 515.262 343.497H554.149C557.152 343.497 560.031 344.69 562.154 346.813C564.278 348.936 565.47 351.816 565.47 354.818V614.226Z" fill="#00377D"/>
<path fill-rule="evenodd" clip-rule="evenodd" d="M200.286 341.425C201.004 341.425 201.692 341.139 202.2 340.632C202.708 340.124 202.993 339.435 202.993 338.717C202.993 337.999 202.708 337.311 202.2 336.803C201.692 336.295 201.004 336.01 200.286 336.01C198.917 336.01 198.223 336.876 198.223 338.584C198.223 341.055 199.513 341.425 200.286 341.425ZM200.286 336.994C200.743 336.994 201.181 337.176 201.504 337.499C201.827 337.822 202.009 338.26 202.009 338.717C202.009 339.174 201.827 339.612 201.504 339.936C201.181 340.259 200.743 340.44 200.286 340.44C200.02 340.44 199.208 340.44 199.208 338.584C199.208 337.118 199.739 336.994 200.286 336.994Z" fill="#00377D"/>
<path fill-rule="evenodd" clip-rule="evenodd" d="M367.946 346.475C367.228 346.475 366.54 346.76 366.032 347.268C365.524 347.775 365.239 348.464 365.239 349.182C365.239 349.9 365.524 350.589 366.032 351.096C366.54 351.604 367.228 351.889 367.946 351.889C368.719 351.889 370.013 351.52 370.013 349.054C370.013 347.366 369.315 346.475 367.946 346.475ZM367.946 350.905C367.489 350.905 367.051 350.723 366.728 350.4C366.405 350.077 366.223 349.639 366.223 349.182C366.223 348.725 366.405 348.287 366.728 347.964C367.051 347.641 367.489 347.459 367.946 347.459C368.493 347.459 369.029 347.582 369.029 349.054C369.029 350.905 368.192 350.905 367.946 350.905Z" fill="#00377D"/>
<path fill-rule="evenodd" clip-rule="evenodd" d="M462.308 337.117L474.53 331.88L462.731 313.003L462.308 337.117Z" fill="#2854C3"/>
<path d="M652.183 463.302C652.202 465.145 652.514 466.972 653.108 468.717L654.038 468.392C653.48 466.747 653.186 465.024 653.167 463.287C653.078 458.429 657.833 454.181 667.289 450.657L666.945 449.736C656.913 453.467 652.084 457.902 652.183 463.302Z" fill="white"/>
<path d="M706.85 442.17L706.703 441.186L704.552 441.516C700.043 442.205 694.771 442.992 689.351 444.006C687.665 442.49 685.93 440.849 684.148 439.084L683.459 439.783C685.054 441.358 686.615 442.835 688.141 444.213C686.083 444.602 684.011 445.02 681.958 445.468L682.17 446.453C684.459 445.961 686.767 445.468 689.061 445.065C694.195 449.652 698.906 453.152 703.095 455.5L703.587 454.639C699.61 452.414 695.16 449.126 690.297 444.838C695.436 443.908 700.417 443.145 704.709 442.49L706.85 442.17Z" fill="white"/>
<path d="M695.696 395.157C695.67 393.489 695.413 391.832 694.933 390.234L693.993 390.53C694.448 392.036 694.69 393.598 694.712 395.172C694.8 399.547 691.025 403.431 683.489 406.71L683.883 407.61C691.822 404.16 695.795 399.971 695.696 395.157Z" fill="white"/>
<path d="M661.072 416.643L661.742 415.924C661.126 415.348 660.511 414.787 659.906 414.241L661.309 413.97L661.122 412.986C660.408 413.123 659.694 413.261 658.98 413.389C651.065 406.355 644.174 401.856 638.464 400.025L638.164 400.96C643.608 402.708 650.184 406.96 657.755 413.616C652.537 414.561 647.418 415.329 643.194 415.973L638.41 416.702L638.562 417.686C640.039 417.455 641.629 417.194 643.342 416.953C647.772 416.283 653.187 415.476 658.685 414.457C659.482 415.171 660.275 415.89 661.072 416.643Z" fill="white"/>
<path fill-rule="evenodd" clip-rule="evenodd" d="M362.059 112.609H385.11C386.836 112.609 388.491 113.294 389.712 114.515C390.932 115.735 391.618 117.39 391.618 119.116C391.618 119.97 391.449 120.816 391.122 121.606C390.795 122.395 390.316 123.112 389.711 123.716C389.107 124.32 388.39 124.799 387.6 125.125C386.811 125.451 385.965 125.619 385.11 125.619H362.059C361.205 125.619 360.36 125.45 359.571 125.124C358.782 124.797 358.065 124.318 357.461 123.714C356.857 123.11 356.378 122.393 356.052 121.604C355.725 120.816 355.557 119.97 355.557 119.116C355.557 117.391 356.241 115.737 357.461 114.516C358.68 113.296 360.334 112.61 362.059 112.609Z" fill="#4ABFB0"/>
<path d="M495.086 172.1C491.507 172.1 488.008 171.039 485.032 169.05C482.057 167.062 479.737 164.236 478.368 160.929C476.999 157.622 476.641 153.984 477.339 150.474C478.038 146.964 479.762 143.74 482.293 141.209C484.824 138.679 488.048 136.956 491.559 136.258C495.069 135.561 498.707 135.92 502.014 137.29C505.32 138.66 508.146 140.98 510.133 143.956C512.121 146.933 513.181 150.432 513.18 154.011C513.174 158.807 511.265 163.405 507.873 166.797C504.481 170.188 499.882 172.095 495.086 172.1ZM495.086 136.901C491.701 136.9 488.393 137.902 485.578 139.782C482.764 141.661 480.57 144.333 479.274 147.459C477.979 150.586 477.639 154.026 478.299 157.346C478.958 160.665 480.588 163.714 482.98 166.108C485.373 168.501 488.422 170.131 491.741 170.792C495.06 171.452 498.501 171.114 501.627 169.819C504.754 168.524 507.427 166.331 509.307 163.517C511.187 160.703 512.191 157.395 512.191 154.011C512.186 149.475 510.382 145.127 507.175 141.919C503.969 138.712 499.621 136.907 495.086 136.901Z" fill="#4ABFB0"/>
<path d="M476.056 190.658C474.47 190.658 472.92 190.187 471.601 189.306C470.282 188.425 469.255 187.173 468.648 185.708C468.041 184.243 467.882 182.63 468.191 181.075C468.501 179.519 469.265 178.091 470.386 176.969C471.507 175.848 472.936 175.084 474.492 174.775C476.047 174.465 477.659 174.624 479.124 175.231C480.59 175.838 481.842 176.866 482.723 178.184C483.604 179.503 484.074 181.053 484.074 182.639C484.073 184.765 483.228 186.804 481.724 188.308C480.221 189.811 478.182 190.656 476.056 190.658ZM476.056 175.61C474.664 175.609 473.304 176.021 472.146 176.793C470.989 177.566 470.086 178.664 469.553 179.95C469.02 181.235 468.881 182.65 469.152 184.015C469.423 185.38 470.093 186.634 471.077 187.618C472.061 188.602 473.315 189.272 474.68 189.543C476.045 189.814 477.46 189.675 478.745 189.142C480.031 188.609 481.129 187.706 481.902 186.549C482.674 185.391 483.086 184.031 483.085 182.639C483.084 180.775 482.343 178.988 481.025 177.67C479.707 176.352 477.92 175.611 476.056 175.61Z" fill="#4ABFB0"/>
<path d="M58.0395 40.703C54.8992 40.6748 51.8375 39.7179 49.2401 37.9527C46.6428 36.1876 44.6259 33.6932 43.4436 30.7838C42.2613 27.8744 41.9666 24.6802 42.5965 21.6036C43.2264 18.5271 44.7527 15.7057 46.9832 13.495C49.2137 11.2844 52.0486 9.78329 55.1307 9.18091C58.2128 8.57854 61.4042 8.90183 64.3029 10.11C67.2016 11.3182 69.6779 13.3573 71.4197 15.9703C73.1616 18.5834 74.0912 21.6535 74.0913 24.7939C74.0666 29.0304 72.3629 33.0842 69.3539 36.0664C66.3448 39.0487 62.276 40.7161 58.0395 40.703ZM58.0395 9.86933C55.0939 9.89751 52.2226 10.7967 49.7871 12.4537C47.3516 14.1107 45.4609 16.4513 44.3532 19.1808C43.2454 21.9102 42.9702 24.9065 43.562 27.7921C44.1539 30.6777 45.5865 33.3236 47.6793 35.3966C49.7721 37.4696 52.4316 38.8769 55.3227 39.4413C58.2138 40.0057 61.2073 39.7019 63.9261 38.5683C66.6449 37.4346 68.9675 35.5217 70.6012 33.0705C72.2349 30.6194 73.1067 27.7396 73.1068 24.7939C73.0782 20.8211 71.4766 17.0215 68.6526 14.2271C65.8286 11.4326 62.0124 9.87099 58.0395 9.88411V9.86933Z" fill="#00377D"/>
<path d="M8.11203 157.289C6.52633 157.271 4.98154 156.784 3.67202 155.889C2.36251 154.995 1.34679 153.733 0.75271 152.263C0.158633 150.792 0.0127527 149.179 0.33339 147.626C0.654027 146.073 1.42687 144.65 2.55467 143.535C3.68247 142.42 5.11481 141.664 6.67146 141.361C8.22812 141.058 9.83953 141.223 11.3029 141.834C12.7662 142.445 14.0161 143.475 14.8953 144.795C15.7745 146.115 16.2437 147.665 16.2438 149.251C16.238 150.313 16.023 151.363 15.6111 152.342C15.1993 153.32 14.5986 154.208 13.8434 154.955C13.0883 155.701 12.1934 156.292 11.21 156.692C10.2266 157.093 9.17385 157.295 8.11203 157.289ZM8.11203 142.197C6.72106 142.216 5.36661 142.645 4.219 143.431C3.07139 144.217 2.18188 145.325 1.66231 146.616C1.14274 147.906 1.01632 149.321 1.29896 150.683C1.5816 152.045 2.26068 153.294 3.25078 154.271C4.24089 155.248 5.4978 155.91 6.86347 156.175C8.22915 156.44 9.64261 156.295 10.9261 155.758C12.2095 155.222 13.3057 154.318 14.0767 153.16C14.8477 152.002 15.2592 150.642 15.2593 149.251C15.2535 148.318 15.064 147.396 14.7016 146.537C14.3392 145.677 13.8111 144.898 13.1473 144.243C12.4836 143.588 11.6972 143.07 10.8332 142.719C9.96926 142.368 9.04457 142.191 8.11203 142.197Z" fill="#00377D"/>
<path d="M296.877 213.143C301.936 213.143 306.038 209.042 306.038 203.982C306.038 198.923 301.936 194.822 296.877 194.822C291.818 194.822 287.717 198.923 287.717 203.982C287.717 209.042 291.818 213.143 296.877 213.143Z" fill="#CAD9FF"/>
</svg>
