<svg width="740" height="496" viewBox="0 0 740 496" fill="none" xmlns="http://www.w3.org/2000/svg">
<path d="M92.0564 182.828C142.396 182.828 183.204 141.992 183.204 91.6173C183.204 41.243 142.396 0.406555 92.0564 0.406555C41.7167 0.406555 0.908386 41.243 0.908386 91.6173C0.908386 141.992 41.7167 182.828 92.0564 182.828Z" fill="#CAD9FF"/>
<path d="M61.2717 42.0964V40.3467C61.2717 39.734 61.3923 39.1273 61.6267 38.5612C61.861 37.9951 62.2044 37.4808 62.6374 37.0476C63.0703 36.6143 63.5843 36.2706 64.15 36.0361C64.7157 35.8017 65.322 35.681 65.9342 35.681H71.469C72.7055 35.681 73.8915 36.1726 74.7659 37.0476C75.6402 37.9225 76.1315 39.1093 76.1315 40.3467V46.7621C76.1315 47.9995 75.6402 49.1862 74.7659 50.0612C73.8915 50.9362 72.7055 51.4278 71.469 51.4278H53.6992C52.4626 51.4278 51.2767 50.9362 50.4023 50.0612C49.5279 49.1862 49.0367 47.9995 49.0367 46.7621C49.0367 45.5246 49.5279 44.3379 50.4023 43.4629C51.2767 42.5879 52.4626 42.0964 53.6992 42.0964H61.2717Z" fill="#2854C3"/>
<path d="M129.252 152.98H123.625C123 152.98 122.381 152.856 121.804 152.617C121.226 152.378 120.702 152.027 120.26 151.585C119.818 151.143 119.467 150.618 119.228 150.04C118.989 149.462 118.866 148.843 118.866 148.217C118.866 146.954 119.367 145.743 120.26 144.85C121.152 143.957 122.363 143.455 123.625 143.455H129.252C130.514 143.455 131.725 143.957 132.617 144.85C133.51 145.743 134.011 146.954 134.011 148.217C134.01 149.48 133.508 150.691 132.616 151.584C131.724 152.476 130.514 152.979 129.252 152.98Z" fill="#2854C3"/>
<path d="M168.582 126.546H158.481C157.142 126.546 155.858 126.014 154.911 125.066C153.964 124.119 153.433 122.834 153.433 121.494C153.433 120.154 153.964 118.869 154.911 117.922C155.858 116.974 157.142 116.442 158.481 116.442H168.582C169.245 116.441 169.903 116.571 170.516 116.824C171.13 117.078 171.687 117.45 172.157 117.919C172.626 118.388 172.999 118.946 173.253 119.559C173.507 120.172 173.638 120.83 173.638 121.494C173.638 122.158 173.507 122.816 173.253 123.429C172.999 124.043 172.626 124.6 172.157 125.069C171.687 125.538 171.13 125.91 170.516 126.164C169.903 126.417 169.245 126.547 168.582 126.546Z" fill="#2854C3"/>
<path d="M168.582 126.948H158.481C157.035 126.948 155.649 126.373 154.627 125.351C153.605 124.328 153.031 122.941 153.031 121.494C153.031 120.048 153.605 118.66 154.627 117.637C155.649 116.615 157.035 116.04 158.481 116.04H168.582C170.027 116.04 171.414 116.615 172.436 117.637C173.458 118.66 174.032 120.048 174.032 121.494C174.032 122.941 173.458 124.328 172.436 125.351C171.414 126.373 170.027 126.948 168.582 126.948ZM158.481 116.844C157.249 116.844 156.067 117.334 155.195 118.206C154.324 119.078 153.835 120.261 153.835 121.494C153.835 122.727 154.324 123.91 155.195 124.782C156.067 125.654 157.249 126.144 158.481 126.144H168.582C169.814 126.144 170.996 125.654 171.867 124.782C172.739 123.91 173.228 122.727 173.228 121.494C173.228 120.261 172.739 119.078 171.867 118.206C170.996 117.334 169.814 116.844 168.582 116.844H158.481Z" fill="#00377D"/>
<path d="M122.355 165.227H121.189C118.204 165.227 115.342 164.041 113.231 161.929C111.12 159.817 109.935 156.952 109.935 153.965C109.935 148.467 107.752 143.194 103.867 139.307C99.9821 135.419 94.7129 133.235 89.2187 133.235C83.7245 133.235 78.4553 135.419 74.5703 139.307C70.6853 143.194 68.5027 148.467 68.5027 153.965C68.5027 154.748 68.3486 155.523 68.0493 156.246C67.7499 156.969 67.3111 157.627 66.758 158.18C66.2048 158.734 65.5482 159.173 64.8255 159.472C64.1028 159.772 63.3282 159.926 62.5459 159.926H46.4884C44.703 159.924 42.9421 160.343 41.3481 161.148C39.7541 161.953 38.3716 163.121 37.3121 164.559C50.8988 174.766 67.0642 180.973 83.9867 182.481C100.909 183.988 117.916 180.736 133.09 173.091C132.368 170.808 130.938 168.815 129.008 167.401C127.078 165.987 124.747 165.226 122.355 165.227Z" fill="#2854C3"/>
<path d="M171.427 75.235C171.427 73.2935 170.657 71.4316 169.285 70.0588C167.913 68.6859 166.052 67.9147 164.112 67.9147H138.991C136.193 67.9147 133.509 69.0271 131.53 71.0071C129.552 72.9871 128.44 75.6727 128.44 78.4729C128.44 81.2731 129.552 83.9586 131.53 85.9387C133.509 87.9187 136.193 89.0311 138.991 89.0311H146.708V97.8356C146.708 100.965 147.951 103.967 150.162 106.18C152.374 108.393 155.373 109.637 158.501 109.637H181.436C182.622 103.704 183.218 97.6679 183.216 91.6173C183.216 88.5605 183.068 85.5398 182.77 82.5554H178.751C177.789 82.5564 176.837 82.3679 175.949 82.0005C175.06 81.6331 174.253 81.094 173.573 80.4141C172.893 79.7343 172.353 78.9269 171.985 78.0383C171.617 77.1496 171.427 76.197 171.427 75.235Z" fill="#2854C3"/>
<path d="M92.0443 0.406558C88.2133 0.406578 84.3861 0.645691 80.585 1.1225V18.9206C80.585 23.2943 82.3212 27.4888 85.4117 30.5814C88.5022 33.6741 92.6939 35.4115 97.0645 35.4115C101.868 35.4115 106.475 37.321 109.871 40.7199C113.268 44.1188 115.176 48.7287 115.176 53.5354V56.9744C115.176 58.5233 115.791 60.0088 116.885 61.104C117.98 62.1993 119.464 62.8146 121.012 62.8146H155.953C157.501 62.8146 158.985 62.1993 160.08 61.104C161.174 60.0088 161.789 58.5233 161.789 56.9744C161.789 55.7914 162.259 54.6568 163.095 53.8203C163.93 52.9837 165.064 52.5138 166.246 52.5138H174.418C167.022 36.9188 155.355 23.744 140.774 14.5203C126.192 5.29653 109.295 0.402413 92.0443 0.406558Z" fill="#2854C3"/>
<path d="M61.5612 69.4069H48.6348C47.4245 69.4069 46.226 69.1684 45.1078 68.7049C43.9896 68.2414 42.9736 67.562 42.1178 66.7056C41.2619 65.8492 40.583 64.8325 40.1199 63.7135C39.6567 62.5945 39.4183 61.3952 39.4183 60.1841C39.4183 58.1967 38.6294 56.2908 37.2251 54.8855C35.8208 53.4802 33.9161 52.6908 31.9302 52.6908H9.61042C4.13513 64.329 1.17577 76.9925 0.925733 89.8535C0.675699 102.715 3.14062 115.484 8.15941 127.326H31.9382C37.1137 127.323 42.0762 125.263 45.7347 121.6C49.3932 117.937 51.4484 112.97 51.4484 107.79V100.116C51.4484 97.4354 52.5126 94.8645 54.4068 92.9689C56.3011 91.0734 58.8702 90.0085 61.5491 90.0085C64.2792 90.0085 66.8974 88.9232 68.8279 86.9914C70.7583 85.0597 71.8428 82.4396 71.8428 79.7077C71.8428 76.9758 70.7583 74.3557 68.8279 72.4239C66.8974 70.4922 64.2792 69.4069 61.5491 69.4069H61.5612Z" fill="#2854C3"/>
<path d="M156.793 26.8363C141.816 11.8478 122.108 2.51976 101.029 0.441561C79.9492 -1.63663 58.8017 3.6636 41.1896 15.4391C23.5774 27.2147 10.5903 44.737 4.44121 65.0203C-1.70791 85.3037 -0.638611 107.093 7.4669 126.676C15.5724 146.259 30.2126 162.424 48.893 172.416C67.5734 182.408 89.1381 185.609 109.913 181.474C130.687 177.339 149.387 166.124 162.824 149.739C176.262 133.354 183.606 112.814 183.606 91.6174C183.639 79.5816 181.286 67.6588 176.684 56.5392C172.081 45.4195 165.321 35.3237 156.793 26.8363ZM156.222 27.4074C163.422 34.5936 169.365 42.9391 173.803 52.0955H166.242C164.954 52.0966 163.719 52.6092 162.807 53.521C161.896 54.4327 161.384 55.6689 161.383 56.9583C161.381 58.3992 160.808 59.7805 159.79 60.7998C158.773 61.819 157.393 62.3931 155.953 62.3963H121.008C119.567 62.3942 118.186 61.8205 117.168 60.8012C116.149 59.7818 115.576 58.3999 115.574 56.9583V53.5193C115.569 48.6075 113.616 43.8984 110.146 40.4253C106.675 36.9521 101.969 34.9985 97.0605 34.9932C94.9491 34.9932 92.8585 34.5771 90.9079 33.7685C88.9572 32.96 87.1848 31.7749 85.6919 30.281C84.199 28.787 83.0147 27.0134 82.2067 25.0614C81.3987 23.1094 80.9829 21.0173 80.9829 18.9045V1.47244C84.6534 1.03031 88.3472 0.808692 92.0443 0.808783C103.968 0.774264 115.78 3.10744 126.796 7.67319C137.813 12.2389 147.814 18.9465 156.222 27.4074ZM9.83142 53.093H31.9381C33.8169 53.0951 35.618 53.8429 36.9465 55.1723C38.275 56.5017 39.0222 58.3041 39.0243 60.1841C39.0318 62.7331 40.0464 65.1758 41.8469 66.979C43.6473 68.7822 46.0874 69.7996 48.6347 69.8091H61.5571C64.1806 69.8091 66.6966 70.852 68.5516 72.7084C70.4067 74.5647 71.4489 77.0825 71.4489 79.7077C71.4489 82.333 70.4067 84.8507 68.5516 86.7071C66.6966 88.5634 64.1806 89.6063 61.5571 89.6063C58.7712 89.6074 56.0996 90.7147 54.1289 92.6852C52.1582 94.6558 51.0496 97.3284 51.0464 100.116V107.791C51.041 112.863 49.0249 117.727 45.4403 121.314C41.8557 124.901 36.9955 126.919 31.9261 126.924H8.40051C3.49019 115.196 1.08113 102.571 1.32753 89.8573C1.57393 77.1438 4.47036 64.6218 9.83142 53.093ZM37.8748 164.483C38.9073 163.188 40.2173 162.141 41.7081 161.419C43.1989 160.698 44.8325 160.321 46.4884 160.316H62.5338C64.2196 160.314 65.8357 159.643 67.0277 158.45C68.2198 157.257 68.8904 155.64 68.8925 153.953C68.8925 148.562 71.0327 143.391 74.8424 139.579C78.652 135.767 83.8189 133.625 89.2066 133.625C94.5942 133.625 99.7612 135.767 103.571 139.579C107.38 143.391 109.521 148.562 109.521 153.953C109.527 157.045 110.757 160.008 112.942 162.194C115.126 164.38 118.087 165.611 121.177 165.617H122.343C124.595 165.612 126.792 166.31 128.629 167.614C130.466 168.919 131.85 170.764 132.588 172.893C117.562 180.371 100.762 183.543 84.0457 182.059C67.3299 180.575 51.3502 174.492 37.8748 164.483ZM156.222 155.835C149.505 162.57 141.774 168.21 133.311 172.547C132.503 170.285 131.015 168.329 129.051 166.948C127.087 165.566 124.743 164.827 122.343 164.833H121.177C118.301 164.826 115.545 163.679 113.511 161.644C111.478 159.609 110.332 156.851 110.325 153.973C110.325 148.368 108.1 142.993 104.139 139.03C100.179 135.067 94.8074 132.841 89.2066 132.841C83.6057 132.841 78.2343 135.067 74.2739 139.03C70.3136 142.993 68.0886 148.368 68.0886 153.973C68.0865 155.447 67.5006 156.859 66.4593 157.901C65.418 158.943 64.0064 159.53 62.5338 159.532H46.4884C44.71 159.538 42.9557 159.944 41.3555 160.72C39.7552 161.496 38.3499 162.623 37.2437 164.016C33.9457 161.503 30.8209 158.77 27.8906 155.835C19.7962 147.76 13.3006 138.227 8.74619 127.736H31.9381C37.2197 127.727 42.2819 125.622 46.0147 121.883C49.7474 118.144 51.846 113.076 51.8502 107.791V100.116C51.8524 97.5428 52.8749 95.0754 54.6933 93.2558C56.5117 91.4361 58.9774 90.4128 61.5491 90.4107C64.3857 90.4107 67.1062 89.2831 69.112 87.2759C71.1178 85.2687 72.2447 82.5463 72.2447 79.7077C72.2447 76.8691 71.1178 74.1467 69.112 72.1395C67.1062 70.1323 64.3857 69.0047 61.5491 69.0047H48.6347C46.2992 68.9973 44.0615 68.0656 42.4101 66.413C40.7587 64.7604 39.8276 62.5212 39.8202 60.1841C39.8181 58.0907 38.9861 56.0837 37.5069 54.6035C36.0276 53.1232 34.022 52.2907 31.9301 52.2886H10.2253C16.7796 38.6972 26.6052 26.948 38.8195 18.0965C51.0338 9.245 65.2542 3.56853 80.2031 1.57702V18.9206C80.2031 23.401 81.9817 27.6978 85.1476 30.8659C88.3135 34.0339 92.6073 35.8137 97.0846 35.8137C101.78 35.8191 106.281 37.6879 109.601 41.0102C112.921 44.3325 114.789 48.837 114.794 53.5354V56.9744C114.795 58.6297 115.453 60.2168 116.622 61.3873C117.792 62.5577 119.378 63.2157 121.032 63.2168H155.953C157.607 63.2157 159.193 62.5577 160.363 61.3873C161.532 60.2168 162.19 58.6297 162.191 56.9744C162.193 55.8987 162.621 54.8677 163.381 54.107C164.141 53.3464 165.171 52.9181 166.246 52.916H174.197C178.539 62.1371 181.285 72.0286 182.32 82.1693H178.743C176.91 82.1672 175.153 81.4376 173.857 80.1407C172.561 78.8437 171.832 77.0853 171.829 75.2511C171.827 73.2036 171.014 71.2406 169.567 69.7928C168.12 68.345 166.158 67.5307 164.112 67.5286H138.991C136.086 67.5286 133.3 68.6833 131.246 70.7388C129.192 72.7943 128.038 75.5821 128.038 78.489C128.038 81.3959 129.192 84.1837 131.246 86.2392C133.3 88.2947 136.086 89.4494 138.991 89.4494H146.306V97.8356C146.309 101.071 147.595 104.173 149.882 106.461C152.168 108.749 155.268 110.036 158.501 110.039H180.953C177.389 127.406 168.787 143.336 156.222 155.835ZM181.102 109.243H158.489C155.47 109.236 152.576 108.032 150.443 105.893C148.31 103.755 147.111 100.857 147.11 97.8356V88.6289H138.987C136.295 88.6289 133.714 87.5589 131.81 85.6543C129.907 83.7497 128.838 81.1664 128.838 78.4729C128.838 75.7794 129.907 73.1962 131.81 71.2915C133.714 69.3869 136.295 68.3169 138.987 68.3169H164.108C165.941 68.319 167.698 69.0486 168.994 70.3456C170.29 71.6425 171.019 73.4009 171.021 75.235C171.024 77.2825 171.837 79.2456 173.284 80.6934C174.731 82.1412 176.693 82.9555 178.739 82.9576H182.388C182.656 85.816 182.79 88.7026 182.79 91.6174C182.798 97.5305 182.232 103.43 181.102 109.234V109.243Z" fill="#00377D"/>
<path d="M71.469 35.2788H65.9182C64.5753 35.2799 63.2878 35.8142 62.3383 36.7644C61.3887 37.7145 60.8548 39.003 60.8538 40.3467V41.6942H53.6992C52.356 41.6942 51.0679 42.2281 50.1181 43.1785C49.1683 44.129 48.6348 45.418 48.6348 46.7621C48.6348 48.1062 49.1683 49.3953 50.1181 50.3457C51.0679 51.2961 52.356 51.8301 53.6992 51.8301H71.469C72.8118 51.829 74.0994 51.2947 75.0489 50.3445C75.9985 49.3943 76.5324 48.1059 76.5334 46.7621V40.3467C76.5324 39.003 75.9985 37.7145 75.0489 36.7644C74.0994 35.8142 72.8118 35.2799 71.469 35.2788ZM75.7295 46.7621C75.7274 47.8922 75.2779 48.9754 74.4793 49.7745C73.6808 50.5736 72.5983 51.0235 71.469 51.0256H53.6992C52.5692 51.0256 51.4856 50.5764 50.6865 49.7769C49.8875 48.9773 49.4386 47.8929 49.4386 46.7621C49.4386 45.6314 49.8875 44.5469 50.6865 43.7474C51.4856 42.9478 52.5692 42.4986 53.6992 42.4986H61.6737V40.3467C61.6748 39.2163 62.124 38.1325 62.9228 37.3332C63.7216 36.5338 64.8046 36.0843 65.9343 36.0832H71.469C72.5986 36.0843 73.6817 36.5338 74.4805 37.3332C75.2793 38.1325 75.7285 39.2163 75.7295 40.3467V46.7621Z" fill="#00377D"/>
<path d="M129.252 143.053H123.625C122.256 143.053 120.943 143.597 119.975 144.566C119.008 145.534 118.464 146.848 118.464 148.217C118.464 149.587 119.008 150.901 119.975 151.869C120.943 152.838 122.256 153.382 123.625 153.382H129.252C130.621 153.382 131.933 152.838 132.901 151.869C133.869 150.901 134.413 149.587 134.413 148.217C134.413 146.848 133.869 145.534 132.901 144.566C131.933 143.597 130.621 143.053 129.252 143.053ZM129.252 152.577H123.625C123.053 152.577 122.486 152.465 121.957 152.245C121.429 152.026 120.948 151.705 120.544 151.3C120.139 150.895 119.818 150.415 119.599 149.886C119.38 149.357 119.268 148.79 119.268 148.217C119.268 147.645 119.38 147.078 119.599 146.549C119.818 146.02 120.139 145.539 120.544 145.134C120.948 144.729 121.429 144.408 121.957 144.189C122.486 143.97 123.053 143.857 123.625 143.857H129.252C129.824 143.857 130.391 143.97 130.919 144.189C131.448 144.408 131.928 144.729 132.333 145.134C132.737 145.539 133.058 146.02 133.277 146.549C133.496 147.078 133.609 147.645 133.609 148.217C133.609 148.79 133.496 149.357 133.277 149.886C133.058 150.415 132.737 150.895 132.333 151.3C131.928 151.705 131.448 152.026 130.919 152.245C130.391 152.465 129.824 152.577 129.252 152.577Z" fill="#00377D"/>
<path d="M398.753 31.3009H321.982V147.542H337.457V166.345L352.228 151.568L366.996 166.345V147.542H398.749L398.753 31.3009ZM366.196 164.403L352.232 150.43L338.265 164.403V132.418H366.196V164.403ZM397.949 146.737H367V131.614H337.461V146.737H322.79V32.1053H397.953L397.949 146.737Z" fill="#00377D"/>
<path d="M337.859 94.5489H383.278C383.385 94.5489 383.487 94.5066 383.562 94.4312C383.638 94.3558 383.68 94.2536 383.68 94.147C383.68 94.0404 383.638 93.9382 383.562 93.8628C383.487 93.7874 383.385 93.7451 383.278 93.7451H337.859C337.752 93.7451 337.65 93.7874 337.575 93.8628C337.499 93.9382 337.457 94.0404 337.457 94.147C337.457 94.2536 337.499 94.3558 337.575 94.4312C337.65 94.5066 337.752 94.5489 337.859 94.5489Z" fill="#00377D"/>
<path d="M337.859 109.483H383.278C383.385 109.483 383.487 109.441 383.562 109.366C383.638 109.29 383.68 109.188 383.68 109.081C383.68 108.975 383.638 108.872 383.562 108.797C383.487 108.722 383.385 108.679 383.278 108.679H337.859C337.752 108.679 337.65 108.722 337.575 108.797C337.499 108.872 337.457 108.975 337.457 109.081C337.457 109.188 337.499 109.29 337.575 109.366C337.65 109.441 337.752 109.483 337.859 109.483Z" fill="#00377D"/>
<path d="M337.859 49.754H383.278C383.385 49.754 383.487 49.7117 383.562 49.6363C383.638 49.5609 383.68 49.4587 383.68 49.3521C383.68 49.2455 383.638 49.1433 383.562 49.0679C383.487 48.9925 383.385 48.9502 383.278 48.9502H337.859C337.752 48.9502 337.65 48.9925 337.575 49.0679C337.499 49.1433 337.457 49.2455 337.457 49.3521C337.457 49.4587 337.499 49.5609 337.575 49.6363C337.65 49.7117 337.752 49.754 337.859 49.754Z" fill="#00377D"/>
<path d="M337.859 64.6884H372.128C372.235 64.6884 372.337 64.646 372.413 64.5706C372.488 64.4953 372.53 64.393 372.53 64.2864C372.53 64.1798 372.488 64.0776 372.413 64.0022C372.337 63.9268 372.235 63.8845 372.128 63.8845H337.859C337.752 63.8845 337.65 63.9268 337.575 64.0022C337.499 64.0776 337.457 64.1798 337.457 64.2864C337.457 64.393 337.499 64.4953 337.575 64.5706C337.65 64.646 337.752 64.6884 337.859 64.6884Z" fill="#00377D"/>
<path d="M337.859 79.6186H383.278C383.385 79.6186 383.487 79.5763 383.562 79.5009C383.638 79.4255 383.68 79.3233 383.68 79.2167C383.68 79.1101 383.638 79.0079 383.562 78.9325C383.487 78.8571 383.385 78.8148 383.278 78.8148H337.859C337.752 78.8148 337.65 78.8571 337.575 78.9325C337.499 79.0079 337.457 79.1101 337.457 79.2167C337.457 79.3233 337.499 79.4255 337.575 79.5009C337.65 79.5763 337.752 79.6186 337.859 79.6186Z" fill="#00377D"/>
<path d="M631.581 356.498L630.09 463.254H630.492C628.373 476.656 625.897 482.351 623.928 484.676L611.898 488.73C610.888 489.071 610.054 489.8 609.581 490.755C609.108 491.711 609.033 492.816 609.374 493.826C609.45 494.068 609.551 494.301 609.675 494.522L635.041 494.603C635.431 494.603 635.817 494.527 636.177 494.378C636.537 494.229 636.864 494.01 637.14 493.734L643.542 487.343L642.622 494.522H650.52L649.371 476.286C649.338 475.76 649.113 475.264 648.739 474.893C648.364 474.522 647.867 474.302 647.341 474.275L647.461 474.206L647.9 462.361H647.751L655.95 386.696L660.279 349.427L669.524 268.066L644.632 230.089L631.581 356.498ZM624.398 485.766C624.229 485.811 624.055 485.836 623.88 485.842C626.87 483.111 629.362 475.501 631.291 463.194L647.076 462.369L646.654 473.708C633.598 481.056 627.368 484.318 624.398 485.766Z" fill="#00377D"/>
<path d="M726.306 437.094C725.976 436.803 725.566 436.622 725.129 436.573C724.693 436.524 724.252 436.61 723.866 436.82L720.068 432.106L719.441 432.609L723.3 437.399C720.84 446.551 718.734 453.389 716.981 457.913C716.549 459.095 716.038 460.248 715.454 461.364C714.847 456.814 712.11 450.335 707.552 442.837L706.868 443.24C711.012 450.077 713.673 456.147 714.505 460.535L708.605 472.445C708.132 473.4 708.058 474.503 708.398 475.513C708.738 476.522 709.464 477.356 710.417 477.83C710.644 477.947 710.883 478.038 711.129 478.104L729.12 460.209C729.395 459.934 729.614 459.608 729.764 459.248C729.914 458.889 729.991 458.503 729.992 458.114V449.052L734.413 454.779L740 449.188L726.306 437.094ZM714.61 461.118C714.65 461.372 714.678 461.613 714.706 461.85C714.626 461.615 714.588 461.367 714.594 461.118H714.61Z" fill="#00377D"/>
<path fill-rule="evenodd" clip-rule="evenodd" d="M618.646 338.844L632.055 356.815L656.405 386.981L706.551 443.565L720.164 432.01L660.738 349.704L646.646 325.655L669.986 268.343L675.754 261.554C677.321 259.709 678.436 257.523 679.01 255.17C679.584 252.818 679.6 250.363 679.058 248.003L674.339 227.49L644.145 229.602L615.467 319.779C614.438 322.98 614.19 326.381 614.743 329.698C615.297 333.015 616.635 336.151 618.646 338.844Z" fill="#2854C3"/>
<path fill-rule="evenodd" clip-rule="evenodd" d="M598.087 44.0914H506.754C502.756 44.0914 498.921 45.6809 496.093 48.5103C493.266 51.3397 491.677 55.1772 491.677 59.1785V151.914C491.677 155.915 493.266 159.753 496.093 162.582C498.921 165.411 502.756 167.001 506.754 167.001H598.087C602.086 167.001 605.921 165.411 608.748 162.582C611.575 159.753 613.164 155.915 613.164 151.914V59.1785C613.163 55.1775 611.574 51.3406 608.747 48.5115C605.92 45.6823 602.085 44.0924 598.087 44.0914Z" fill="#CAD9FF"/>
<path d="M552.423 88.2548C557.819 88.2548 562.194 83.8771 562.194 78.4769C562.194 73.0767 557.819 68.699 552.423 68.699C547.026 68.699 542.651 73.0767 542.651 78.4769C542.651 83.8771 547.026 88.2548 552.423 88.2548Z" fill="white"/>
<path fill-rule="evenodd" clip-rule="evenodd" d="M592.705 111.061C592.739 113.18 592.351 115.285 591.563 117.253C590.776 119.221 589.605 121.013 588.119 122.524C586.633 124.034 584.862 125.234 582.908 126.053C580.954 126.872 578.857 127.294 576.738 127.294C574.62 127.294 572.522 126.872 570.569 126.053C568.615 125.234 566.843 124.034 565.357 122.524C563.871 121.013 562.7 119.221 561.913 117.253C561.126 115.285 560.737 113.18 560.771 111.061H592.705Z" fill="white"/>
<path fill-rule="evenodd" clip-rule="evenodd" d="M512.14 111.061C512.107 113.18 512.495 115.285 513.282 117.253C514.069 119.221 515.24 121.013 516.726 122.524C518.212 124.034 519.984 125.234 521.938 126.053C523.892 126.872 525.989 127.294 528.107 127.294C530.226 127.294 532.323 126.872 534.277 126.053C536.231 125.234 538.002 124.034 539.488 122.524C540.974 121.013 542.145 119.221 542.932 117.253C543.72 115.285 544.108 113.18 544.074 111.061H512.14Z" fill="white"/>
<path d="M576.125 141.915H552.901V88.7254C555.45 88.6024 557.863 87.5336 559.668 85.7274C561.473 83.9212 562.541 81.507 562.664 78.9556H592.03C592.157 78.9556 592.278 78.9051 592.368 78.8154C592.458 78.7256 592.508 78.6039 592.508 78.4769C592.508 78.35 592.458 78.2282 592.368 78.1385C592.278 78.0487 592.157 77.9983 592.03 77.9983H562.664C562.547 75.3593 561.417 72.8671 559.51 71.0411C557.602 69.215 555.064 68.1958 552.425 68.1958C549.785 68.1958 547.247 69.215 545.339 71.0411C543.432 72.8671 542.302 75.3593 542.185 77.9983H512.815C512.688 77.9983 512.567 78.0487 512.477 78.1385C512.387 78.2282 512.337 78.35 512.337 78.4769C512.337 78.6039 512.387 78.7256 512.477 78.8154C512.567 78.9051 512.688 78.9556 512.815 78.9556H542.185C542.308 81.5063 543.375 83.9199 545.18 85.7261C546.984 87.5322 549.395 88.6014 551.944 88.7254V141.915H528.72C528.593 141.915 528.472 141.965 528.382 142.055C528.292 142.145 528.242 142.266 528.242 142.393C528.242 142.52 528.292 142.642 528.382 142.732C528.472 142.821 528.593 142.872 528.72 142.872H576.125C576.252 142.872 576.373 142.821 576.463 142.732C576.553 142.642 576.603 142.52 576.603 142.393C576.603 142.266 576.553 142.145 576.463 142.055C576.373 141.965 576.252 141.915 576.125 141.915ZM543.13 78.4769C543.18 76.0436 544.182 73.7269 545.919 72.0239C547.657 70.3209 549.992 69.3671 552.425 69.3671C554.857 69.3671 557.192 70.3209 558.93 72.0239C560.667 73.7269 561.669 76.0436 561.719 78.4769C561.719 78.4769 561.719 78.4769 561.719 78.497C561.711 80.9423 560.742 83.2861 559.021 85.0223C557.301 86.7585 554.966 87.7477 552.523 87.7762C552.49 87.772 552.456 87.772 552.423 87.7762C552.39 87.7723 552.358 87.7723 552.326 87.7762C549.879 87.7476 547.542 86.7557 545.821 85.0152C544.1 83.2746 543.133 80.9257 543.13 78.4769Z" fill="#00377D"/>
<path d="M593.147 110.892C593.149 110.88 593.149 110.867 593.147 110.855C593.141 110.84 593.135 110.826 593.127 110.811L577.162 84.7756C577.116 84.7125 577.055 84.6611 576.985 84.6257C576.916 84.5903 576.838 84.5718 576.76 84.5718C576.682 84.5718 576.605 84.5903 576.535 84.6257C576.465 84.6611 576.404 84.7125 576.358 84.7756L560.393 110.811C560.393 110.811 560.393 110.811 560.393 110.835C560.38 110.86 560.369 110.885 560.361 110.912C560.359 110.943 560.359 110.973 560.361 111.004C560.361 111.024 560.361 111.04 560.361 111.061C560.327 113.243 560.727 115.411 561.538 117.438C562.349 119.464 563.555 121.309 565.086 122.865C566.616 124.42 568.441 125.656 570.453 126.499C572.465 127.342 574.625 127.777 576.806 127.777C578.988 127.777 581.148 127.342 583.16 126.499C585.172 125.656 586.996 124.42 588.527 122.865C590.057 121.309 591.263 119.464 592.074 117.438C592.886 115.411 593.286 113.243 593.252 111.061C593.229 110.998 593.193 110.94 593.147 110.892ZM576.736 85.9541L591.849 110.594H561.627L576.736 85.9541ZM576.736 126.578C572.712 126.573 568.848 125.003 565.96 122.2C563.072 119.396 561.385 115.58 561.257 111.555H592.207C592.073 115.575 590.386 119.386 587.5 122.185C584.614 124.985 580.755 126.554 576.736 126.562V126.578Z" fill="#00377D"/>
<path d="M544.553 111.061C544.552 111.004 544.541 110.948 544.52 110.896V110.859C544.523 110.845 544.523 110.83 544.52 110.815L528.551 84.7796C528.505 84.7165 528.445 84.6651 528.375 84.6297C528.305 84.5943 528.228 84.5758 528.149 84.5758C528.071 84.5758 527.994 84.5943 527.924 84.6297C527.854 84.6651 527.794 84.7165 527.747 84.7796L511.782 110.815C511.772 110.828 511.765 110.843 511.762 110.859V110.896C511.742 110.948 511.731 111.004 511.73 111.061C511.696 113.243 512.096 115.411 512.907 117.438C513.719 119.464 514.924 121.309 516.455 122.865C517.985 124.42 519.81 125.656 521.822 126.499C523.834 127.342 525.994 127.777 528.176 127.777C530.357 127.777 532.517 127.342 534.529 126.499C536.541 125.656 538.366 124.42 539.896 122.865C541.427 121.309 542.633 119.464 543.444 117.438C544.255 115.411 544.655 113.243 544.621 111.061H544.553ZM528.109 85.942L543.218 110.582H512.996L528.109 85.942ZM528.109 126.566C524.085 126.561 520.221 124.991 517.332 122.188C514.443 119.385 512.756 115.568 512.626 111.543H543.576C543.447 115.565 541.762 119.379 538.876 122.181C535.99 124.983 532.13 126.554 528.109 126.562V126.566Z" fill="#00377D"/>
<path fill-rule="evenodd" clip-rule="evenodd" d="M267.664 60.1398C267.302 58.2856 267.073 56.0734 265.691 54.5852C264.754 53.5807 263.63 52.7707 262.381 52.2012C261.132 51.6317 259.783 51.3139 258.411 51.2661C257.04 51.2183 255.672 51.4414 254.387 51.9225C253.101 52.4037 251.923 53.1335 250.919 54.0704C250.321 54.6302 249.82 55.2853 249.436 56.0091C248.361 54.5522 246.947 53.38 245.316 52.5942C243.978 51.9684 242.524 51.6267 241.047 51.5908C239.57 51.5548 238.102 51.8252 236.735 52.3851C230.581 54.7984 228.672 58.8608 230.135 66.3943C230.862 70.147 231.956 72.6206 233.58 74.1812C234.609 75.1698 235.922 75.8112 237.334 76.0153L238.439 84.2729L246.715 73.4854C247.52 72.88 248.251 72.182 248.893 71.4059L252.041 83.943C252.063 84.0323 252.115 84.1113 252.188 84.1669C252.261 84.2225 252.351 84.2514 252.443 84.2487H252.539C252.642 84.2231 252.731 84.1574 252.786 84.0661C252.841 83.9749 252.858 83.8655 252.832 83.762L249.617 70.8911C249.594 70.8101 249.546 70.7383 249.48 70.686C249.87 70.1361 250.218 69.558 250.521 68.9564C252.423 70.9404 255.03 72.095 257.776 72.1703C260.523 72.2455 263.188 71.2355 265.196 69.3587C267.905 66.8126 268.327 63.5627 267.664 60.1398ZM241.216 75.0742C238.113 75.6775 235.798 75.1948 234.138 73.598C232.639 72.1581 231.618 69.8212 230.923 66.2415C230.46 63.8603 230.344 61.8654 230.601 60.176L243.556 59.3716L246.261 62.2796C246.656 61.369 247.39 60.6478 248.307 60.2685C248.278 60.5943 248.262 60.9242 248.246 61.258C248.154 63.7075 248.387 66.2415 249.922 68.2807C249.114 70.0232 247.903 71.5482 246.389 72.7295C244.875 73.9108 243.102 74.7145 241.216 75.0742Z" fill="#00377D"/>
<path fill-rule="evenodd" clip-rule="evenodd" d="M96.8676 264.635L90.2758 290.908C91.5178 290.783 95.1553 291.362 98.4553 292.859C98.8049 293.02 99.1506 293.168 99.4923 293.313C101.241 294.053 103.315 294.777 108.508 298.293C108.548 298.333 108.584 298.377 108.62 298.421H141.656L151.202 264.635H96.8676Z" fill="#4ABFB0"/>
<path fill-rule="evenodd" clip-rule="evenodd" d="M111.052 308.171L75.3357 308.018L51.7981 315.113C50.0738 315.634 48.2498 315.733 46.4794 315.402C44.7089 315.071 43.0436 314.32 41.6235 313.212C40.2034 312.103 39.07 310.669 38.3183 309.032C37.5667 307.394 37.2189 305.599 37.3041 303.799L37.5493 298.57L36.9785 298.502H36.9423L17.8341 306.594L18.638 331.455C18.7622 335.319 20.3837 338.982 23.1594 341.67C25.935 344.359 29.647 345.861 33.5098 345.859H110.71L142.665 307.853L111.052 308.171Z" fill="#2854C3"/>
<path fill-rule="evenodd" clip-rule="evenodd" d="M625.347 193.644L623.136 202.09L625.347 193.644Z" fill="white"/>
<path d="M623.136 202.493C623.103 202.496 623.069 202.496 623.035 202.493C622.984 202.479 622.936 202.456 622.894 202.425C622.851 202.393 622.816 202.353 622.789 202.307C622.762 202.262 622.744 202.211 622.737 202.159C622.73 202.106 622.733 202.053 622.746 202.002L624.957 193.555C624.984 193.452 625.051 193.363 625.143 193.309C625.236 193.256 625.346 193.241 625.449 193.268C625.552 193.295 625.641 193.362 625.695 193.455C625.749 193.547 625.764 193.657 625.737 193.76L623.526 202.207C623.501 202.29 623.449 202.363 623.379 202.415C623.308 202.466 623.223 202.494 623.136 202.493Z" fill="#00377D"/>
<path fill-rule="evenodd" clip-rule="evenodd" d="M437.371 104.899C435.362 103.893 428.557 102.678 426.318 102.887H426.233C424.431 102.837 422.644 103.234 421.032 104.042C418.279 105.45 416.362 108.02 415.638 111.314L415.453 112.464C415.078 114.16 414.795 115.874 414.605 117.601H414.642L414.557 118.131L405.349 134.22C405.322 134.266 405.305 134.317 405.299 134.37C405.292 134.423 405.296 134.476 405.31 134.528C405.324 134.579 405.349 134.627 405.381 134.669C405.414 134.71 405.455 134.745 405.501 134.771C405.562 134.805 405.629 134.823 405.698 134.823C405.769 134.824 405.839 134.805 405.9 134.77C405.962 134.735 406.013 134.684 406.048 134.622L415.228 118.57C415.265 118.529 415.292 118.481 415.309 118.429L415.711 117.749L416.442 117.858C416.44 118.589 416.59 119.313 416.885 119.982C417.179 120.651 417.61 121.251 418.15 121.743C418.225 121.809 418.321 121.845 418.42 121.844C418.476 121.844 418.531 121.832 418.583 121.809C418.634 121.786 418.68 121.753 418.717 121.711C418.753 121.672 418.78 121.626 418.798 121.575C418.816 121.525 418.823 121.472 418.82 121.419C418.817 121.366 418.804 121.314 418.781 121.266C418.757 121.218 418.725 121.175 418.685 121.14C418.253 120.746 417.904 120.269 417.658 119.738C417.412 119.207 417.275 118.632 417.254 118.047L417.31 118.071C417.286 117.666 417.32 117.26 417.411 116.864C417.598 116.054 418.022 115.318 418.63 114.751C419.238 114.184 420.001 113.812 420.822 113.682C421.643 113.552 422.484 113.671 423.237 114.023C423.99 114.375 424.621 114.944 425.048 115.658L425.803 112.34C429.876 111.696 432.935 111.128 434.98 110.634L436.889 110.513C438.059 113.397 438.095 116.925 437.906 120.891C437.717 125.247 436.925 127.728 435.345 128.935C433.935 130.009 431.772 130.162 428.545 129.418C427.041 129.072 425.152 128.11 422.917 126.562C422.83 126.508 422.725 126.489 422.624 126.51C422.523 126.531 422.434 126.59 422.376 126.674C422.317 126.759 422.293 126.863 422.308 126.965C422.324 127.066 422.378 127.158 422.459 127.222C423.313 127.821 424.198 128.373 425.112 128.875L421.583 137.659C421.543 137.758 421.544 137.868 421.586 137.966C421.627 138.064 421.706 138.142 421.804 138.182C421.853 138.201 421.905 138.211 421.957 138.21C422.037 138.209 422.114 138.185 422.18 138.14C422.246 138.095 422.297 138.031 422.327 137.957L425.828 129.249C426.633 129.661 427.482 129.979 428.36 130.198C429.556 130.496 430.781 130.658 432.013 130.681C433.621 130.681 434.855 130.315 435.828 129.575C437.641 128.195 438.501 125.609 438.702 120.927C438.883 116.8 438.854 112.987 437.468 109.866C439.863 108.776 439.353 105.892 437.371 104.899Z" fill="#00377D"/>
<path d="M278.918 191.673C278.888 191.677 278.857 191.677 278.826 191.673C278.723 191.648 278.633 191.583 278.578 191.493C278.522 191.402 278.504 191.294 278.528 191.19C280.376 183.324 279.78 175.082 276.82 167.564L274.196 160.871L260.308 139.996C260.25 139.907 260.23 139.799 260.251 139.695C260.272 139.591 260.333 139.5 260.421 139.441C260.465 139.411 260.514 139.391 260.566 139.38C260.618 139.369 260.671 139.369 260.723 139.379C260.775 139.389 260.824 139.41 260.868 139.439C260.912 139.468 260.95 139.506 260.98 139.55L274.927 160.489L277.584 167.254C280.604 174.926 281.211 183.337 279.324 191.363C279.303 191.454 279.251 191.534 279.177 191.591C279.103 191.647 279.011 191.676 278.918 191.673Z" fill="#00377D"/>
<path fill-rule="evenodd" clip-rule="evenodd" d="M177.256 100.41L167.653 87.5187C166.556 86.0427 164.985 84.989 163.204 84.5343L154.807 82.3824C154.374 82.2705 153.919 82.2824 153.493 82.4168C153.066 82.5512 152.686 82.8027 152.396 83.1426C152.162 83.4159 152.045 83.7709 152.072 84.1298C152.1 84.4887 152.268 84.8222 152.54 85.0571L152.637 85.1336C156.978 88.2172 159.049 89.7604 158.851 89.7631C158.652 89.7658 155.425 89.3354 149.168 88.472L140.277 83.6051C139.802 83.3451 139.247 83.2698 138.72 83.3938C138.192 83.5178 137.729 83.8322 137.419 84.2768C137.113 84.7161 136.984 85.2553 137.058 85.7858C137.133 86.3164 137.405 86.799 137.821 87.1366L144.654 92.7435C146.127 93.9568 147.807 94.8918 149.614 95.5027C155.142 97.3476 159.195 98.9926 161.773 100.438C164.753 102.106 166.904 104.15 168.228 106.572L177.256 100.41Z" fill="white"/>
<path d="M168.087 107.131L167.874 106.729C166.596 104.388 164.474 102.377 161.576 100.752C159.056 99.3359 154.988 97.6868 149.486 95.8487C147.633 95.2269 145.908 94.2728 144.397 93.0331L137.544 87.4584C137.051 87.0551 136.729 86.4804 136.642 85.8494C136.555 85.2184 136.709 84.5777 137.074 84.0557C137.439 83.5288 137.986 83.1554 138.61 83.007C139.234 82.8585 139.89 82.9455 140.454 83.2512L149.297 88.0778C153.822 88.7053 156.286 89.0351 157.577 89.2041C156.749 88.5766 155.217 87.4584 152.404 85.4554C152.358 85.4251 152.315 85.3915 152.275 85.3548C151.923 85.0501 151.706 84.6184 151.672 84.1542C151.637 83.6899 151.788 83.2308 152.09 82.8772C152.428 82.4795 152.872 82.1852 153.369 82.0279C153.867 81.8707 154.399 81.857 154.904 81.9883L163.3 84.1401C165.169 84.6197 166.818 85.7255 167.971 87.2734L177.826 100.502L168.087 107.131ZM139.208 83.7379C138.918 83.7375 138.633 83.8072 138.376 83.941C138.119 84.0747 137.899 84.2686 137.733 84.5062C137.484 84.8611 137.378 85.2972 137.437 85.727C137.496 86.1567 137.715 86.5483 138.05 86.8229L144.883 92.454C146.316 93.6281 147.951 94.5317 149.707 95.1207C155.334 97.003 159.353 98.624 161.934 100.088C164.807 101.697 166.958 103.684 168.324 105.993L176.693 100.329L167.344 87.7762C166.3 86.3749 164.807 85.3741 163.115 84.9405L154.719 82.7887C154.358 82.6933 153.978 82.7019 153.623 82.8137C153.267 82.9254 152.95 83.1357 152.709 83.4202C152.545 83.6132 152.462 83.863 152.48 84.116C152.489 84.241 152.523 84.3628 152.58 84.4746C152.636 84.5864 152.715 84.686 152.81 84.7676L152.886 84.8279C159.393 89.4534 159.377 89.5138 159.253 89.8959L159.164 90.1774H158.859C158.754 90.1774 158.505 90.1774 149.12 88.8823H149.047L140.068 83.9591C139.804 83.8148 139.509 83.7388 139.208 83.7379Z" fill="#00377D"/>
<path fill-rule="evenodd" clip-rule="evenodd" d="M292.5 149.464L279.533 95.4706C278.789 92.3723 277.09 89.5869 274.677 87.5086C272.263 85.4304 269.257 84.1646 266.084 83.8907V83.8384H230.36C229.13 83.8989 227.904 84.0333 226.69 84.2407C224.64 84.6136 222.708 85.4724 221.057 86.7453C219.406 88.0181 218.084 89.668 217.2 91.557C211.434 103.892 205.673 116.226 199.917 128.561L178.281 99.1227L162.786 109.798L194.74 156.386C196.185 157.517 197.877 158.287 199.678 158.634C201.479 158.98 203.336 158.893 205.096 158.38C206.857 157.867 208.47 156.942 209.803 155.682C211.136 154.422 212.151 152.863 212.763 151.133L221.549 126.292L223.306 140.37H261.261L263.745 111.27L273.066 149.038L243.934 181.939C244.557 182.052 245.172 182.193 245.782 182.366L252.189 184.18C252.762 184.342 253.285 184.643 253.714 185.056C254.142 185.469 254.462 185.982 254.645 186.549L288.336 161.1C290.088 159.778 291.416 157.972 292.156 155.905C292.895 153.838 293.015 151.599 292.5 149.464Z" fill="#4ABFB0"/>
<path d="M223.668 140.209C223.672 140.174 223.672 140.139 223.668 140.105L220.452 111.346C220.44 111.239 220.387 111.142 220.303 111.075C220.219 111.008 220.113 110.976 220.006 110.988C219.899 111 219.802 111.054 219.735 111.137C219.668 111.221 219.636 111.328 219.648 111.435L222.864 140.193C222.869 140.228 222.878 140.262 222.892 140.294L216.762 176.324C216.568 177.474 216.252 178.6 215.818 179.683L211.24 191.13C211.22 191.179 211.21 191.232 211.211 191.284C211.212 191.337 211.223 191.39 211.244 191.438C211.265 191.487 211.295 191.531 211.333 191.567C211.371 191.604 211.416 191.633 211.465 191.653C211.512 191.672 211.562 191.681 211.613 191.681C211.694 191.681 211.773 191.657 211.839 191.612C211.906 191.567 211.957 191.502 211.987 191.428L216.577 179.968C217.032 178.834 217.364 177.654 217.57 176.449L223.7 140.418C223.709 140.347 223.698 140.274 223.668 140.209Z" fill="#00377D"/>
<path fill-rule="evenodd" clip-rule="evenodd" d="M320.748 400.383V191.23H164.394V428.004L167.959 450.725C169.966 457.305 170.904 461.73 170.772 463.998C171.721 464.762 171.817 464.247 171.054 462.438L181.572 472.823C182.397 473.638 182.865 474.747 182.872 475.907C182.88 477.067 182.427 478.183 181.613 479.009C181.422 479.206 181.212 479.382 180.986 479.536L164.41 471.491V494.904H254.444V400.383H320.748Z" fill="#CAD9FF"/>
<path d="M282.48 400.54C275.996 397.978 268.082 396.096 258.962 394.937L259.063 394.133C268.251 395.299 276.229 397.198 282.777 399.764L282.48 400.54Z" fill="white"/>
<path d="M223.523 342.13C229.456 337.891 238.15 333.977 249.364 330.506C260.011 327.208 271.953 324.59 283.577 322.438C297.709 335.003 310.069 343.353 320.507 347.375L320.797 346.627C310.555 342.669 298.437 334.504 284.574 322.237C295.08 320.31 305.286 318.766 313.988 317.45C316.315 317.096 318.542 316.758 320.64 316.433L320.519 315.628L313.867 316.642C304.88 318.001 294.465 319.578 283.806 321.541C274.73 313.446 264.925 303.618 254.392 292.058C244.14 280.676 234.543 270.955 225.601 262.898C259.887 256.494 296.443 246.093 296.089 226.236C295.916 216.53 292.122 208.602 284.835 202.67C277.548 196.737 266.619 192.691 252.278 190.551L252.157 191.355C266.338 193.475 277.154 197.493 284.312 203.301C291.471 209.109 295.117 216.799 295.285 226.256C295.39 232.152 291.973 237.606 285.132 242.477C279.196 246.7 270.498 250.602 259.288 254.077C248.564 257.399 236.534 260.046 224.837 262.218C217.833 255.949 211.281 250.756 205.182 246.64C191.115 237.148 179.189 233.266 169.747 235.104C167.857 235.465 166.005 236.004 164.217 236.713L164.514 237.461C166.257 236.773 168.06 236.249 169.9 235.897C183.064 233.339 201.131 242.244 223.824 262.411C213.414 264.325 203.325 265.874 194.688 267.189C187.421 268.303 181.142 269.261 176.552 270.154C172.131 271.014 168.059 270.906 164.454 269.828L164.221 270.6C166.385 271.232 168.63 271.546 170.885 271.533C172.841 271.524 174.791 271.327 176.709 270.946C181.279 270.053 187.561 269.096 194.796 267.986C203.703 266.626 214.017 265.049 224.58 263.095C233.342 270.946 242.783 280.465 252.901 291.652L252.877 291.676C263.571 303.475 273.538 313.506 282.777 321.77C248.552 328.137 212.164 338.518 212.566 358.484C212.779 368.942 217.12 377.34 225.472 383.47C233.825 389.6 246.273 393.562 262.624 395.356L262.712 394.551C246.502 392.774 234.134 388.828 225.947 382.819C217.759 376.809 213.579 368.649 213.37 358.464C213.282 352.52 216.686 347.017 223.523 342.13Z" fill="white"/>
<path d="M236.743 468.077C242.583 466.983 248.496 465.776 254.3 464.416L254.115 463.612C248.126 465.016 242.016 466.259 235.991 467.377C227.378 459.662 219.415 453.544 212.18 449.088C199.925 441.542 189.402 438.554 180.901 440.207C175.563 441.245 171.226 443.356 168.007 446.49L168.57 447.065C171.673 444.044 175.873 442.005 181.054 440.995C194.213 438.441 212.305 447.366 234.986 467.566C224.64 469.464 214.58 471.001 205.846 472.336C198.583 473.446 192.308 474.403 187.722 475.292C185.996 475.643 184.242 475.839 182.481 475.88V476.684C184.299 476.65 186.111 476.457 187.895 476.105C192.465 475.216 198.747 474.259 205.982 473.153C214.897 471.789 225.191 470.216 235.762 468.262C241.563 473.466 247.659 479.4 254.05 486.064L254.629 485.505C248.404 479.021 242.442 473.212 236.743 468.077Z" fill="white"/>
<path d="M708.798 184.521L681.249 149.231C679.117 146.512 676.367 144.342 673.228 142.902C670.089 141.462 666.651 140.794 663.201 140.953C662.801 140.967 662.403 141.033 662.02 141.15C660.988 140.764 659.92 140.48 658.832 140.302L654.528 126.473C654.508 126.421 654.48 126.372 654.443 126.329L654.596 124.607C654.788 123.806 654.886 122.986 654.889 122.162V121.245L655.002 119.941C655.075 118.51 654.826 117.08 654.274 115.757C653.722 114.435 652.88 113.253 651.81 112.299C650.818 111.444 649.664 110.796 648.418 110.393C654.227 105.014 654.987 99.4431 650.697 93.6807C644.125 84.8319 632.493 93.2423 633.816 100.466C634.686 105.218 636.846 108.588 640.295 110.578C635.025 112.283 633.824 116.233 632.614 122.162C631.709 126.586 631.955 129.402 633.418 131.2C634.624 132.712 636.693 133.472 639.728 133.524H639.909C640.518 133.52 641.126 133.477 641.73 133.396L643.036 140.969C641.391 141.631 639.925 142.672 638.757 144.007C637.588 145.341 636.751 146.933 636.312 148.652L625.057 193.181L601.974 187.357L601.636 188.371L599.627 187.164L577.52 173.674L577.452 173.633L568.432 168.871C568.148 168.719 567.837 168.626 567.517 168.596C567.197 168.566 566.874 168.601 566.567 168.698C566.254 168.795 565.964 168.953 565.713 169.164C565.463 169.375 565.257 169.633 565.108 169.925C564.805 170.524 564.73 171.213 564.896 171.864C565.061 172.514 565.456 173.083 566.008 173.465L573.846 178.87L570.542 183.267C570.061 183.906 569.733 184.648 569.584 185.435C569.434 186.222 569.468 187.032 569.681 187.804C569.894 188.576 570.281 189.288 570.813 189.887C571.345 190.485 572.008 190.953 572.749 191.255L591.375 198.828L591.419 198.852L597.098 202.034L595.125 207.951L625.998 224.373L623.132 231.327L693.07 226.823L687.254 213.043L706.048 200.94C706.33 200.759 706.603 200.562 706.852 200.357C709.204 198.518 710.73 195.82 711.094 192.856C711.458 189.891 710.631 186.903 708.794 184.55L708.798 184.521ZM639.732 132.696C636.955 132.648 635.09 131.988 634.037 130.685C632.767 129.1 632.566 126.437 633.406 122.311C634.093 118.944 634.772 116.41 636.026 114.556L646.143 120.34H646.179C646.136 120.361 646.095 120.386 646.055 120.412C645.968 120.472 645.907 120.563 645.887 120.666C645.867 120.77 645.888 120.877 645.946 120.966C646.004 121.054 646.094 121.115 646.197 121.138C646.3 121.16 646.408 121.14 646.497 121.084C647.098 120.683 647.808 120.475 648.531 120.488C650.613 120.525 652.277 122.379 652.241 124.619C652.239 125.353 652.041 126.074 651.666 126.705C651.291 127.336 650.754 127.855 650.11 128.207C650.016 128.257 649.945 128.342 649.913 128.444C649.882 128.545 649.892 128.656 649.941 128.75C649.975 128.816 650.027 128.871 650.09 128.909C650.153 128.947 650.225 128.967 650.299 128.967C650.364 128.966 650.427 128.95 650.484 128.919C651.465 128.392 652.231 127.538 652.651 126.506L653.708 126.55C653.717 126.572 653.731 126.593 653.748 126.61C653.742 126.65 653.742 126.691 653.748 126.731L657.976 140.149C656.37 139.969 654.747 140.013 653.153 140.278C652.497 140.391 651.848 140.539 651.208 140.72L651.163 140.744C650.754 140.6 650.337 140.482 649.913 140.39C649.62 140.33 649.322 140.282 649.025 140.249L648.478 140.189C646.973 140.015 645.447 140.152 643.997 140.591L645.158 132.644L645.379 132.587C645.482 132.559 645.57 132.491 645.623 132.398C645.675 132.305 645.689 132.195 645.661 132.092C645.633 131.99 645.565 131.902 645.472 131.849C645.379 131.796 645.269 131.783 645.166 131.811C643.404 132.353 641.576 132.651 639.732 132.696ZM591.801 198.12C591.757 198.096 591.711 198.074 591.664 198.056L573.042 190.482C572.414 190.227 571.854 189.831 571.403 189.325C570.953 188.819 570.624 188.216 570.444 187.562C570.263 186.909 570.235 186.223 570.361 185.557C570.488 184.891 570.766 184.263 571.173 183.721L574.984 178.657L566.45 172.777C566.057 172.501 565.776 172.092 565.661 171.625C565.546 171.159 565.603 170.666 565.823 170.239C566.028 169.854 566.377 169.566 566.794 169.438C567.21 169.31 567.661 169.352 568.046 169.555L577.086 174.337L599.16 187.808L601.375 189.139L597.356 201.238L591.801 198.12ZM596.094 207.532L602.508 188.298L625.648 194.138L637.075 148.829C637.702 146.384 639.187 144.246 641.26 142.808C643.333 141.37 645.854 140.727 648.362 140.998L648.908 141.058C649.178 141.087 649.447 141.13 649.712 141.187C651.969 141.661 653.946 143.012 655.21 144.943C656.473 146.874 656.92 149.227 656.453 151.487L642.867 216.687C642.655 217.691 642.304 218.662 641.826 219.571C641.157 220.83 640.247 221.945 639.147 222.852C638.047 223.759 636.779 224.441 635.416 224.858C634.053 225.274 632.621 225.419 631.202 225.282C629.784 225.145 628.406 224.729 627.147 224.059L596.094 207.532ZM691.88 226.066L624.354 230.41L626.697 224.723L626.79 224.771C628.387 225.621 630.16 226.087 631.968 226.132C633.776 226.177 635.57 225.801 637.208 225.033C638.846 224.264 640.282 223.125 641.404 221.705C642.526 220.285 643.302 218.624 643.671 216.852L657.257 151.652C657.678 149.62 657.425 147.505 656.535 145.63C655.644 143.756 654.166 142.223 652.325 141.267C652.638 141.195 652.952 141.134 653.266 141.082C657.587 140.358 662.019 141.382 665.586 143.927C669.154 146.473 671.565 150.333 672.289 154.657L679.058 195.08C679.167 195.729 679.351 196.363 679.605 196.97L680.043 198.004C680.049 198.072 680.074 198.138 680.115 198.193L686.317 212.886C686.315 212.935 686.323 212.984 686.342 213.029C686.361 213.074 686.389 213.114 686.426 213.147L691.88 226.066ZM680.344 196.656C680.113 196.108 679.947 195.534 679.85 194.947L676.297 173.734L689.295 190.627L680.618 197.296L680.344 196.656ZM710.301 192.731C710.136 194.095 709.704 195.412 709.027 196.608C708.351 197.804 707.445 198.854 706.362 199.697C706.117 199.886 705.863 200.067 705.602 200.236L686.916 212.262L680.927 198.064L690.409 190.78L676.003 172.049L673.069 154.524C672.701 152.275 671.89 150.121 670.683 148.187C669.476 146.254 667.898 144.58 666.039 143.262C665.215 142.676 664.342 142.162 663.431 141.726C666.72 141.607 669.99 142.269 672.975 143.659C675.959 145.048 678.573 147.124 680.601 149.718L708.15 185.008C709.002 186.089 709.63 187.328 710 188.654C710.369 189.979 710.471 191.365 710.301 192.731Z" fill="#00377D"/>
<path d="M474.539 193.99C473.49 193.423 472.26 192.678 470.889 191.769H469.864V190.965H471.138L471.243 191.033C472.634 191.958 473.875 192.719 474.933 193.282L474.539 193.99Z" fill="#00377D"/>
<path d="M544.291 410.35C541.329 408.528 541.008 406.59 538.564 403.287C537.843 402.317 535.989 400.512 533.001 397.874L531.08 383.233H531.482C537.109 382.336 539.971 371.42 540.264 349.849C540.308 346.366 539.673 342.183 538.938 337.336C538.158 332.224 537.278 326.428 537.044 320.262C536.691 310.757 535.955 287.964 534.866 252.516C534.703 247.223 533.151 242.067 530.366 237.564C527.58 233.062 523.659 229.372 518.997 226.867L519.299 225.057C520.031 220.637 518.978 216.107 516.372 212.464C513.766 208.82 509.821 206.362 505.404 205.63C505.054 205.574 504.708 205.529 504.359 205.493L523.25 204.504L524.729 204.632L529.279 152.497L525.553 152.171L521.316 200.988L499.672 202.122C500.335 201.901 500.994 201.664 501.637 201.39C502.001 201.238 502.309 200.976 502.518 200.641C502.727 200.306 502.827 199.914 502.805 199.52C502.782 199.126 502.638 198.748 502.392 198.439C502.147 198.13 501.811 197.905 501.433 197.795C499.178 197.135 497.413 196.66 496.207 196.383C495.512 196.226 494.35 195.9 492.73 195.418C493.053 195.139 493.281 194.769 493.386 194.356C493.415 194.231 493.433 194.105 493.442 193.978C493.479 193.323 493.287 192.675 492.898 192.147C492.509 191.619 491.948 191.244 491.312 191.086L484.137 189.304C483.937 189.253 483.76 189.134 483.637 188.968C483.515 188.801 483.454 188.598 483.465 188.391C483.476 188.184 483.558 187.988 483.697 187.835C483.837 187.683 484.025 187.583 484.229 187.554C485.651 187.204 487.131 187.161 488.57 187.429C489.776 187.695 493.1 188.596 498.446 190.096C498.852 190.211 499.286 190.18 499.671 190.007C500.056 189.834 500.368 189.531 500.552 189.151C500.738 188.768 500.81 188.34 500.759 187.918C500.707 187.495 500.535 187.097 500.263 186.77L500.207 186.718C496.046 183.343 494.141 182.354 492.606 181.557L492.204 181.336L491.513 180.962C488.287 179.176 484.639 178.293 480.954 178.408L473.06 178.649L473.084 179.454L480.978 179.212C484.518 179.104 488.022 179.951 491.123 181.666C491.36 181.798 491.597 181.927 491.83 182.048L492.256 182.273C493.755 183.049 495.616 184.015 499.688 187.317C499.852 187.524 499.954 187.773 499.983 188.036C500.011 188.298 499.965 188.564 499.849 188.801C499.747 189.011 499.575 189.178 499.363 189.273C499.151 189.369 498.911 189.387 498.687 189.324C493.245 187.796 490.001 186.911 488.763 186.645C487.218 186.351 485.628 186.392 484.101 186.766C483.715 186.828 483.363 187.022 483.104 187.314C482.844 187.606 482.693 187.979 482.677 188.37C482.66 188.76 482.779 189.144 483.013 189.457C483.247 189.771 483.581 189.993 483.96 190.088L491.139 191.866C491.593 191.979 491.993 192.248 492.271 192.626C492.548 193.003 492.685 193.466 492.658 193.933C492.653 194.01 492.643 194.087 492.626 194.163C492.569 194.392 492.448 194.601 492.277 194.764C492.106 194.928 491.893 195.04 491.661 195.088C490.23 194.653 488.518 194.117 486.525 193.479C482.945 192.333 479.12 192.194 475.467 193.077L473.574 193.535L470.085 193.72L470.129 194.525L473.65 194.34L475.66 193.861C479.168 193.008 482.843 193.136 486.283 194.231C491.352 195.84 494.64 196.825 496.055 197.147C497.26 197.421 498.993 197.891 501.236 198.547C501.385 198.589 501.523 198.663 501.642 198.763C501.761 198.863 501.857 198.987 501.924 199.127C501.992 199.266 502.029 199.419 502.034 199.574C502.038 199.729 502.01 199.883 501.951 200.027C501.896 200.162 501.816 200.284 501.714 200.388C501.612 200.491 501.49 200.574 501.356 200.63C499.566 201.38 497.703 201.942 495.797 202.307L472.187 203.546L472.376 207.166L499.158 205.763L421.856 219.816L422.001 220.62L499.909 206.454C502.437 206.018 505.033 206.194 507.479 206.966C509.925 207.738 512.151 209.085 513.971 210.894C515.791 212.704 517.152 214.922 517.941 217.365C518.729 219.808 518.922 222.404 518.503 224.936L518.25 226.485C514.057 224.377 509.429 223.281 504.736 223.287H413.85L383.781 217.93C383.725 217.919 383.668 217.921 383.614 217.934C383.559 217.947 383.508 217.972 383.463 218.006C383.419 218.04 383.383 218.084 383.357 218.133C383.33 218.182 383.315 218.236 383.31 218.292L380.899 248.434C380.677 251.188 381.375 253.937 382.884 256.251C384.393 258.564 386.627 260.311 389.235 261.216H341.927V399.981H254.026V495.307H487.027V371.094L489.877 373.403L506.618 386.969C509.458 388.243 511.389 388.452 512.409 387.597C512.941 387.207 513.376 386.699 513.68 386.113L513.527 393.409L513.491 393.389L507.401 403.818L506.115 407.036L518.74 413.069L529.331 417.14L549.428 424.854C552.523 425.189 554.424 424.787 555.132 423.648C556.181 421.934 558.295 418.958 544.291 410.35ZM472.987 204.327L495.773 203.12H495.858L522.04 201.748L526.293 153.044L528.419 153.229L523.997 203.764L523.258 203.695L473.084 206.338L472.987 204.327ZM360.138 494.502H254.83V400.786H342.256C342.28 400.788 342.304 400.788 342.328 400.786C342.353 400.787 342.377 400.787 342.401 400.786H360.138V494.502ZM486.223 494.502H360.942V399.981H342.73V262.021H486.223V494.502ZM499.21 356.139C497.114 356.646 494.236 355.645 490.576 353.135C489.26 352.254 488.071 351.195 487.043 349.99V335.948L500.797 338.514L499.298 356.288C499.25 356.24 499.21 356.192 499.21 356.139ZM487.043 335.124V261.9H497.272L505.886 334.906C504.72 337.074 503.523 338.124 502.373 337.991L487.043 335.124ZM506.2 371.621C503.941 368.97 504.23 367.028 502.916 363.134C502.578 362.131 501.607 360.254 500.002 357.503L501.609 338.675L502.277 338.8C502.369 338.8 502.465 338.8 502.558 338.8C503.788 338.8 504.97 337.935 506.063 336.23L510.962 377.751C509.484 375.622 507.888 373.577 506.183 371.625L506.2 371.621ZM513.491 382.424C513.072 381.334 512.552 380.287 511.935 379.295L506.71 335.051L498.028 261.446C498.016 261.347 497.969 261.257 497.895 261.192C497.82 261.127 497.725 261.091 497.626 261.092H393.315C392.997 261.092 392.684 261.092 392.378 261.055C389.297 260.807 386.44 259.344 384.437 256.989C382.433 254.633 381.447 251.577 381.695 248.494L384.074 218.794L413.745 224.08H413.818H504.74C512.368 224.076 519.698 227.045 525.175 232.357C530.652 237.669 533.847 244.907 534.082 252.536C535.175 287.988 535.907 310.781 536.265 320.29C536.498 326.5 537.382 332.316 538.162 337.452C538.893 342.279 539.524 346.418 539.48 349.833C539.195 370.599 536.482 381.564 531.405 382.412H530.758C530.7 382.399 530.639 382.399 530.581 382.412H530.525L513.491 382.424ZM513.752 383.253C513.752 383.253 513.752 383.253 513.752 383.229V383.253ZM523.768 397.592C520.501 396.689 517.34 395.437 514.339 393.859L514.556 383.229H530.284L532.237 398.111C530.353 398.88 527.525 398.709 523.752 397.596L523.768 397.592Z" fill="#00377D"/>
<path d="M671.204 45.0124C668.282 45.0124 665.425 44.1453 662.995 42.5206C660.566 40.896 658.672 38.5868 657.553 35.8851C656.435 33.1834 656.143 30.2105 656.713 27.3424C657.283 24.4743 658.69 21.8398 660.756 19.772C662.823 17.7042 665.455 16.296 668.321 15.7255C671.188 15.155 674.158 15.4478 676.858 16.5669C679.558 17.686 681.866 19.5811 683.489 22.0125C685.113 24.444 685.979 27.3026 685.979 30.2269C685.975 34.147 684.417 37.9053 681.647 40.6772C678.877 43.4491 675.121 45.0082 671.204 45.0124ZM671.204 16.2459C668.441 16.2459 665.739 17.0658 663.442 18.6021C661.144 20.1383 659.354 22.3219 658.296 24.8766C657.239 27.4313 656.962 30.2424 657.501 32.9545C658.04 35.6666 659.371 38.1577 661.325 40.113C663.279 42.0683 665.768 43.3999 668.478 43.9394C671.189 44.4788 673.998 44.202 676.551 43.1438C679.104 42.0856 681.286 40.2936 682.821 37.9944C684.356 35.6952 685.175 32.9921 685.175 30.2269C685.166 26.5237 683.69 22.9752 681.072 20.3585C678.453 17.7418 674.905 16.2702 671.204 16.266V16.2459Z" fill="#4ABFB0"/>
<path d="M687.977 70.5975C686.682 70.5975 685.416 70.2132 684.339 69.4932C683.263 68.7733 682.423 67.75 681.928 66.5527C681.432 65.3555 681.303 64.0381 681.555 62.7671C681.808 61.4961 682.432 60.3286 683.347 59.4123C684.263 58.496 685.43 57.8719 686.7 57.6191C687.97 57.3663 689.286 57.4961 690.483 57.992C691.679 58.4879 692.702 59.3277 693.421 60.4052C694.141 61.4827 694.525 62.7495 694.525 64.0453C694.522 65.7824 693.832 67.4477 692.604 68.676C691.377 69.9043 689.713 70.5953 687.977 70.5975ZM687.977 58.3017C686.842 58.3025 685.733 58.64 684.789 59.2716C683.846 59.9032 683.111 60.8005 682.677 61.8501C682.243 62.8997 682.13 64.0544 682.352 65.1683C682.574 66.2822 683.121 67.3053 683.924 68.1081C684.727 68.911 685.749 69.4576 686.863 69.6789C687.976 69.9002 689.13 69.7862 690.178 69.3514C691.227 68.9166 692.123 68.1804 692.754 67.2359C693.384 66.2915 693.721 65.1812 693.721 64.0453C693.719 62.522 693.113 61.0617 692.036 59.9849C690.959 58.9081 689.499 58.3028 687.977 58.3017Z" fill="#4ABFB0"/>
<path d="M197.353 35.2064C194.791 35.2064 192.287 34.4463 190.158 33.0223C188.028 31.5983 186.368 29.5744 185.388 27.2063C184.408 24.8383 184.151 22.2326 184.651 19.7187C185.151 17.2048 186.384 14.8957 188.195 13.0833C190.006 11.2708 192.314 10.0366 194.826 9.53654C197.338 9.0365 199.942 9.29313 202.309 10.274C204.675 11.2549 206.698 12.9159 208.121 15.0471C209.544 17.1782 210.303 19.6838 210.303 22.247C210.3 25.683 208.934 28.9775 206.506 31.4071C204.078 33.8368 200.786 35.2032 197.353 35.2064ZM197.353 10.092C194.95 10.092 192.602 10.8048 190.604 12.1404C188.607 13.4761 187.05 15.3744 186.131 17.5954C185.211 19.8165 184.971 22.2604 185.439 24.6183C185.908 26.9761 187.065 29.1419 188.764 30.8418C190.462 32.5418 192.627 33.6994 194.983 34.1684C197.339 34.6374 199.781 34.3967 202.001 33.4767C204.22 32.5567 206.117 30.9988 207.452 28.9999C208.787 27.001 209.499 24.651 209.499 22.247C209.496 19.0242 208.215 15.9344 205.938 13.6556C203.661 11.3768 200.573 10.0952 197.353 10.092Z" fill="#00377D"/>
<path d="M131.511 215.158C130.215 215.159 128.949 214.775 127.872 214.056C126.794 213.336 125.954 212.313 125.458 211.115C124.962 209.918 124.832 208.6 125.085 207.329C125.337 206.058 125.961 204.89 126.877 203.973C127.793 203.057 128.96 202.432 130.23 202.18C131.501 201.927 132.818 202.057 134.014 202.554C135.211 203.05 136.233 203.89 136.953 204.969C137.672 206.047 138.055 207.314 138.054 208.61C138.051 210.346 137.361 212.01 136.134 213.237C134.908 214.464 133.245 215.155 131.511 215.158ZM131.511 202.863C130.375 202.862 129.264 203.198 128.319 203.829C127.374 204.46 126.637 205.358 126.201 206.408C125.766 207.458 125.652 208.614 125.873 209.729C126.094 210.844 126.641 211.869 127.444 212.673C128.247 213.477 129.27 214.025 130.385 214.247C131.499 214.469 132.654 214.356 133.704 213.921C134.754 213.486 135.651 212.749 136.282 211.804C136.913 210.859 137.25 209.747 137.25 208.61C137.249 207.087 136.644 205.626 135.568 204.549C134.492 203.471 133.033 202.865 131.511 202.863Z" fill="#4ABFB0"/>
<path fill-rule="evenodd" clip-rule="evenodd" d="M424.107 142.104L434.558 178.504L456.319 176.127C456.548 176.103 456.777 176.091 457.006 176.083L474.149 175.681L469.728 192.373L436.656 209.085C434.572 210.138 432.176 210.398 429.915 209.818C427.653 209.239 425.678 207.858 424.356 205.931L392.957 160.195L424.107 142.104Z" fill="#00377D"/>
<path fill-rule="evenodd" clip-rule="evenodd" d="M405.803 133.842C405.803 133.842 410.55 130.942 414.051 131.368C417.41 132.433 420.332 134.565 422.372 137.441C424.413 140.316 425.46 143.779 425.357 147.304L423.347 216.888L421.7 225.17L378.853 219.631L390.067 151.753C390.752 147.593 392.59 143.709 395.372 140.542C398.153 137.376 401.768 135.055 405.803 133.842Z" fill="#2854C3"/>
<path fill-rule="evenodd" clip-rule="evenodd" d="M400.003 166.973L422.725 220.616L421.696 225.162L405.763 223.142L400.003 166.973Z" fill="#00377D"/>
<path fill-rule="evenodd" clip-rule="evenodd" d="M414.26 132.853L432.347 194.191L467.517 184.94L473.345 204.85L425.655 219.949C422.809 220.85 419.722 220.582 417.073 219.206C414.425 217.829 412.431 215.456 411.53 212.608C411.462 212.395 411.402 212.178 411.35 211.961L394.372 144.517L400.774 139.236C404.102 136.488 407.988 134.498 412.161 133.404L414.26 132.853Z" fill="#2854C3"/>
<path d="M224.685 191.48C224.303 191.481 223.929 191.366 223.614 191.151C223.298 190.935 223.055 190.629 222.916 190.273C222.754 189.852 222.718 189.392 222.812 188.95C222.905 188.509 223.124 188.103 223.443 187.783L223.503 187.735C228.254 184.517 230.384 183.637 232.096 182.909L232.442 182.764C236.711 180.989 241.453 180.705 245.903 181.959L252.31 183.773C253.335 184.064 254.203 184.75 254.723 185.681C255.243 186.611 255.373 187.711 255.083 188.737L255.035 188.902L254.545 190.374L253.805 190.506C249.447 191.312 244.966 191.165 240.67 190.076L240.521 190.04C239.023 189.528 237.434 189.343 235.859 189.497C234.516 189.678 230.878 190.33 225.042 191.44C224.925 191.465 224.805 191.478 224.685 191.48ZM223.664 189.968C223.755 190.208 223.927 190.409 224.152 190.535C224.376 190.66 224.637 190.703 224.89 190.655C230.742 189.541 234.395 188.886 235.742 188.705C237.424 188.533 239.124 188.725 240.726 189.268L240.851 189.3C245.038 190.353 249.403 190.49 253.648 189.702L253.922 189.65L254.3 188.499C254.531 187.679 254.427 186.799 254.011 186.055C253.595 185.311 252.901 184.762 252.081 184.53L245.674 182.716C241.452 181.525 236.953 181.774 232.888 183.423L232.398 183.625C230.722 184.32 228.64 185.189 223.977 188.339C223.778 188.549 223.641 188.812 223.585 189.097C223.528 189.381 223.552 189.676 223.656 189.947L223.664 189.968Z" fill="#00377D"/>
<path d="M181.556 472.839L171.134 462.55C170.961 460.398 170.234 456.81 168.353 450.636L151.13 340.763H151.073L155.056 328.535C156.37 324.48 156.022 320.068 154.087 316.269C152.152 312.47 148.79 309.595 144.739 308.276C144.26 308.119 143.778 307.99 143.292 307.873L144.558 302.399L155.651 261.216H93.5114L86.2765 290.98L76.5254 292.127C75.7653 291.483 74.881 291.002 73.9275 290.715C72.9739 290.428 71.9715 290.34 70.9826 290.457L62.4012 291.495L64.3506 243.084C64.3707 242.694 64.3707 242.304 64.3506 241.914C64.1817 239.365 63.1436 236.951 61.4097 235.076C59.6758 233.201 57.3512 231.979 54.8247 231.613C54.7771 231.584 54.7235 231.566 54.6679 231.561L43.2166 230.463L45.6845 221.111C46.2352 221.155 46.7577 221.18 47.2481 221.18C47.8786 221.184 48.5087 221.142 49.1332 221.055C52.1357 220.653 54.0931 219.627 55.11 217.978C56.3158 216.003 56.2355 213.208 54.7965 208.908V208.868C54.7965 208.827 54.7724 208.787 54.7563 208.743C53.7233 205.65 52.7466 203.112 51.2353 201.294C51.6537 200.647 51.8552 199.884 51.8104 199.115C51.7656 198.346 51.4768 197.612 50.9861 197.018C50.7822 196.771 50.5471 196.55 50.2867 196.363C49.1011 195.52 47.7052 195.023 46.2542 194.926C44.8032 194.83 43.3538 195.138 42.0671 195.816C38.9132 197.473 36.6355 198.962 35.2341 200.284C33.8301 201.596 32.7356 203.203 32.03 204.991C31.3243 206.778 31.0252 208.7 31.1544 210.617C26.851 215.09 24.438 218.683 23.9154 221.397C23.4974 223.579 23.7868 226.424 24.7836 229.932C22.513 230.333 20.4196 231.421 18.7849 233.048C17.1502 234.675 16.0525 236.764 15.6395 239.034L8.03881 281.432L0 314.59L37.1071 298.876L36.874 303.795C36.7984 305.371 37.0431 306.946 37.5932 308.424C38.1432 309.902 38.9873 311.254 40.0743 312.397C41.1613 313.539 42.4687 314.449 43.9173 315.072C45.3659 315.694 46.9256 316.016 48.5021 316.018C49.6487 316.016 50.7888 315.847 51.8865 315.516L75.8662 308.276H75.9064H139.755C142.166 308.276 144.543 308.848 146.691 309.944C148.839 311.041 150.698 312.631 152.114 314.584C153.53 316.537 154.464 318.798 154.839 321.181C155.214 323.565 155.02 326.004 154.273 328.298L134.851 387.879H134.827V387.915L111.916 458.17V458.222C110.755 464.79 109.734 468.366 108.91 470.257C108.369 468.884 107.951 467.467 107.66 466.021C107.547 465.543 107.435 465.032 107.322 464.509V464.424L107.298 464.384C106.199 459.268 105.077 452.058 103.93 442.753C103.725 442.485 103.464 442.264 103.166 442.105L115.224 363.673L124.815 346.084H132.881C132.988 346.084 133.09 346.042 133.166 345.966C133.241 345.891 133.283 345.789 133.283 345.682C133.283 345.575 133.241 345.473 133.166 345.397C133.09 345.322 132.988 345.28 132.881 345.28H4.88357L52.5778 422.698L4.85946 495.307H125.277L110.156 469.299C110.895 467.188 111.763 463.821 112.708 458.399L135.257 389.218L152.138 441.723C151.597 441.905 151.142 442.28 150.86 442.777L141.049 460.072L148.774 463.841L151.298 456.38L154.514 465.683C154.652 466.084 154.868 466.453 155.15 466.77C155.431 467.087 155.772 467.345 156.154 467.53L180.986 479.556C181.212 479.402 181.422 479.226 181.613 479.029C182.015 478.619 182.333 478.133 182.548 477.6C182.763 477.067 182.871 476.497 182.866 475.922C182.861 475.347 182.743 474.779 182.518 474.25C182.293 473.721 181.966 473.242 181.556 472.839ZM94.1465 262.021H154.598L143.983 301.438H108.524C108.891 301.225 109.175 300.893 109.328 300.497C109.489 300.075 109.526 299.616 109.432 299.174C109.339 298.732 109.12 298.327 108.801 298.007L108.741 297.959C103.994 294.741 101.86 293.86 100.147 293.132L99.6571 292.927C99.3194 292.782 98.9778 292.637 98.6281 292.477C95.288 290.96 91.5218 290.341 90.1873 290.494L87.1125 290.856L94.1465 262.021ZM90.2838 291.31C91.3731 291.186 94.9744 291.712 98.2905 293.225C98.6442 293.386 98.9939 293.538 99.3395 293.683L99.8339 293.892C101.51 294.588 103.596 295.453 108.275 298.602C108.474 298.813 108.61 299.076 108.667 299.36C108.724 299.645 108.7 299.94 108.596 300.211C108.505 300.447 108.335 300.644 108.115 300.769C107.896 300.894 107.64 300.94 107.39 300.899C101.534 299.785 97.8765 299.129 96.538 298.948C94.8637 298.776 93.1721 298.967 91.5781 299.507L90.2396 299.845C87.9581 300.417 85.6177 300.721 83.2659 300.75L77.679 293.297C77.5624 293.14 77.4378 292.991 77.3092 292.847L90.2838 291.31ZM105.899 301.438H85.5168C87.1567 301.299 88.7829 301.03 90.3803 300.634L91.7429 300.288C93.2332 299.781 94.8147 299.598 96.3812 299.753C97.6152 299.906 100.819 300.477 105.899 301.438ZM38.7269 208.819C39.4434 208.721 40.1729 208.84 40.821 209.161C40.916 209.205 41.0241 209.21 41.1226 209.175C41.2211 209.14 41.3022 209.069 41.3487 208.975C41.3952 208.881 41.4035 208.773 41.3718 208.674C41.3401 208.574 41.2708 208.491 41.1788 208.441L41.0702 208.393C42.5708 208.125 45.6926 206.036 50.4355 202.127C50.4998 202.078 50.552 202.022 50.6123 201.97C51.991 203.639 52.9395 205.992 53.9846 209.121C55.2829 213.043 55.3954 215.673 54.3383 217.383C53.454 218.815 51.6815 219.699 48.9282 220.09C47.1016 220.274 45.2584 220.207 43.4497 219.893C43.342 219.911 43.2434 219.964 43.1693 220.045C43.0953 220.125 43.0498 220.228 43.0402 220.337C43.0305 220.445 43.0572 220.554 43.116 220.647C43.1749 220.739 43.2625 220.809 43.3653 220.846L43.0076 227.945L42.3685 230.378L40.9979 230.246L37.2679 230.117C37.6497 229.361 38.0276 228.536 38.3933 227.631C40.4004 222.684 40.7139 219.324 39.3339 217.552C39.3234 217.366 39.2868 217.184 39.2254 217.009C38.7993 216.892 38.4215 216.779 38.0838 216.667C37.4081 216.392 36.8179 215.942 36.3742 215.363C35.9304 214.784 35.6492 214.097 35.5596 213.373C35.2421 211.152 36.665 209.109 38.7269 208.819ZM37.1754 298.019C37.1229 298.02 37.071 298.031 37.0227 298.051L1.20582 313.223L8.84268 281.601L16.4273 239.175C16.8192 237.055 17.8533 235.108 19.3892 233.597C20.9251 232.086 22.8885 231.084 25.0127 230.728C25.2258 231.42 25.4589 232.136 25.7242 232.876C19.963 239.043 17.2834 244.138 17.6854 248.16C18.2883 254.194 24.3174 255.802 27.7339 251.579C30.0115 248.764 31.2174 243.535 31.3513 235.893C33.3369 235.603 35.1671 233.946 36.8418 230.921L40.9376 231.066L49.9973 231.931C47.1532 232.658 44.6173 234.279 42.7628 236.556C40.9083 238.834 39.8332 241.646 39.6956 244.581L37.1754 298.019ZM51.6815 314.743C50.0204 315.245 48.2634 315.34 46.5578 315.022C44.8521 314.704 43.2476 313.981 41.8788 312.914C40.5099 311.847 39.4166 310.468 38.6906 308.891C37.9646 307.314 37.6269 305.586 37.706 303.851L40.5196 244.621C40.6682 241.448 41.9801 238.441 44.2046 236.175C46.4291 233.909 49.4101 232.542 52.5778 232.337C52.8069 232.337 53.028 232.313 53.2531 232.313C55.871 232.317 58.3895 233.317 60.299 235.109C62.2085 236.901 63.3665 239.352 63.5387 241.966C63.5588 242.329 63.5588 242.693 63.5387 243.056L61.529 292.408L61.4446 298.039C61.4446 298.146 61.487 298.248 61.5623 298.324C61.6377 298.399 61.7399 298.442 61.8465 298.442C61.9531 298.442 62.0554 298.399 62.1307 298.324C62.2061 298.248 62.2485 298.146 62.2485 298.039L62.3369 292.312L71.0389 291.258C72.16 291.126 73.2961 291.29 74.3341 291.734C75.3722 292.178 76.276 292.886 76.9555 293.788L85.0948 304.648L51.6815 314.743ZM78.5311 307.471L86.4573 305.058L84.3351 302.242H143.766L142.355 307.471H78.5311ZM102.398 441.856C101.837 441.777 101.266 441.904 100.791 442.214L96.1923 445.247L83.081 422.698L114.111 365.765L102.398 441.856ZM110.936 488.658C111.574 488.574 112.185 488.349 112.727 488.001C113.268 487.652 113.726 487.189 114.067 486.642C114.409 486.096 114.625 485.482 114.702 484.842C114.778 484.202 114.712 483.554 114.509 482.943L110.936 472.256L123.878 494.502H6.34664L53.5344 422.715L6.32252 346.084H123.902L114.553 363.227H114.477L114.444 363.44L82.245 422.505L82.1365 422.706L95.497 445.685L84.1864 453.146L89.3594 460.016L94.9865 454.514L93.6239 464.264C93.5655 464.683 93.5904 465.11 93.6973 465.52C93.8042 465.93 93.991 466.315 94.2469 466.653L110.936 488.658ZM170.386 463.749C169.96 463.403 169.205 462.514 167.814 460.873C164.39 456.827 159.762 450.482 153.931 441.84C153.624 441.694 153.29 441.616 152.95 441.611L135.683 387.915L150.555 342.323L167.573 450.777V450.83C169.808 458.17 170.423 461.895 170.37 463.749H170.386Z" fill="#00377D"/>
</svg>
