<svg xmlns="http://www.w3.org/2000/svg" xmlns:xlink="http://www.w3.org/1999/xlink" viewBox="0 0 463.89 165.64" fill="white">
  <g id="Calque_2" data-name="Calque 2">
    <g id="Calque_1-2" data-name="Calque 1">
      <g>
        <path class="cls-1" d="M95.24,1.86c-32-7.26-65,7.16-82.63,36C-10.33,75.46-1.22,125.42,33.85,150.55c24.3,17.41,50.57,19.7,77.93,7.19.94-.44,1.83-1,2.56-1.41-4.15.48-8.43,1.48-12.68,1.37-11.18-.29-19.8-6-26.9-14.17-10-11.49-15.28-25.22-17.9-40C53,81.7,54.66,60.35,63.59,39.86c4.51-10.34,10.69-19.5,20.2-26,9.3-6.35,19.32-7.95,30.07-4.3.26.09.53.19.8.26.08,0,.18-.07.51-.22A68.37,68.37,0,0,0,95.24,1.86Z"/>
        <path class="cls-2" d="M98.74,64.2c6.35,13,6.49,26.34-.19,39.34-2.91,5.65-7.36,9.49-14.49,8.27,3.53,10.67,14.33,19.78,23.75,20.26,8.38.43,14.7-3.45,19.89-9.52,6.76-7.88,10.19-17.29,11.68-27.39,2.27-15.32.78-30.21-7.12-43.8A42,42,0,0,0,122.54,40c-8.4-6.77-18.77-6.35-27.25.3A38.42,38.42,0,0,0,84,55.59C91.49,54.32,96,58.45,98.74,64.2Z"/>
      </g>
      <g>
        <g>
          <path class="cls-3" d="M217.26,20V33.8H195.45v7.69h15.69v13.1H195.45V75.53H178V20Z"/>
          <path class="cls-3" d="M270,31.29V75.53H252.56V68.79a15.72,15.72,0,0,1-5.45,5.1,16,16,0,0,1-8.11,2q-7.62,0-11.89-5.1t-4.28-13.81V31.29h17.34V54.74a7.08,7.08,0,0,0,1.69,5,6.48,6.48,0,0,0,9,0,7.2,7.2,0,0,0,1.65-5V31.29Z"/>
          <path class="cls-3" d="M320.43,56.47h-28q.39,5.73,4.79,5.73a4.25,4.25,0,0,0,4.08-2.59h18.43a19.19,19.19,0,0,1-4,8.43,21.31,21.31,0,0,1-7.61,5.89,23.51,23.51,0,0,1-10.08,2.15,24.5,24.5,0,0,1-11.73-2.74,19.43,19.43,0,0,1-8-7.89,24.31,24.31,0,0,1-2.86-12,24.31,24.31,0,0,1,2.86-12,19.49,19.49,0,0,1,8-7.89,24.5,24.5,0,0,1,11.73-2.74,24.75,24.75,0,0,1,11.73,2.71,19.51,19.51,0,0,1,8,7.72A23.52,23.52,0,0,1,320.66,53,25.51,25.51,0,0,1,320.43,56.47ZM303,48.86a4,4,0,0,0-1.41-3.33,5.46,5.46,0,0,0-3.53-1.14q-4.63,0-5.41,4.47Z"/>
          <path class="cls-3" d="M343.56,17.48V75.53H326.15v-58Z"/>
        </g>
        <g>
          <path class="cls-3" d="M224.79,92V105.8H210v41.73H192.62V105.8H178V92Z"/>
          <path class="cls-3" d="M229.53,113.29a18.24,18.24,0,0,1,6.55-7.84,16.71,16.71,0,0,1,9.34-2.71,15.06,15.06,0,0,1,7.45,1.76,12,12,0,0,1,4.79,4.83v-6H275v44.24H257.66v-6a12,12,0,0,1-4.79,4.83,15,15,0,0,1-7.45,1.76,16.78,16.78,0,0,1-9.34-2.7,18.27,18.27,0,0,1-6.55-7.85,28.52,28.52,0,0,1-2.39-12.12A28.58,28.58,0,0,1,229.53,113.29Zm26.32,6.63a6.45,6.45,0,0,0-9.26,0,9.27,9.27,0,0,0,0,11,6.45,6.45,0,0,0,9.26,0,9.23,9.23,0,0,0,0-11Z"/>
          <path class="cls-3" d="M311.87,147.53l-7.45-10-5.58,10H279.7l14.83-23.3-15.61-20.94h19.45l7.46,10,5.65-10h19.14L315.32,126l16,21.49Z"/>
          <path class="cls-3" d="M381.37,119.84q-4.64,4.32-13.88,4.31H356.42v23.38h-5.49V92.7h16.56q9.17,0,13.84,4.31A14.88,14.88,0,0,1,386,108.47,14.83,14.83,0,0,1,381.37,119.84Zm-1-11.37c0-3.66-1-6.44-3.06-8.32s-5.31-2.83-9.8-2.83H356.42v22.13h11.07Q380.35,119.45,380.35,108.47Z"/>
          <path class="cls-3" d="M406.2,106.11a17.75,17.75,0,0,1,9.14-2.19v5.72h-1.49a13.89,13.89,0,0,0-9.58,3.22q-3.6,3.21-3.61,10.75v23.92h-5.49V104.7h5.49v7.61A13.47,13.47,0,0,1,406.2,106.11Z"/>
          <path class="cls-3" d="M431.46,145.46a19.54,19.54,0,0,1-7.61-7.69,25.6,25.6,0,0,1,0-23.3,19.81,19.81,0,0,1,7.69-7.69,23.38,23.38,0,0,1,21.85,0,19.42,19.42,0,0,1,7.69,7.69,25.55,25.55,0,0,1,0,23.26,19.52,19.52,0,0,1-7.77,7.73,22.5,22.5,0,0,1-11,2.7A21.82,21.82,0,0,1,431.46,145.46Zm18.71-4a14.66,14.66,0,0,0,5.84-5.8,18.85,18.85,0,0,0,2.23-9.53,19,19,0,0,0-2.19-9.53,14.37,14.37,0,0,0-5.81-5.81,17,17,0,0,0-15.69,0,14.14,14.14,0,0,0-5.76,5.81,22.1,22.1,0,0,0,0,19.06,14.15,14.15,0,0,0,5.72,5.8,16.16,16.16,0,0,0,7.81,1.92A16.37,16.37,0,0,0,450.17,141.45Z"/>
        </g>
      </g>
    </g>
  </g>
</svg>
