<svg width="210" height="72" viewBox="0 0 210 72" fill="none" xmlns="http://www.w3.org/2000/svg">
<path d="M119.248 43.5385C118.425 42.8345 117.773 41.952 117.339 40.9574C116.905 39.9628 116.701 38.882 116.742 37.7965V35.9512C116.709 34.8633 116.929 33.7827 117.385 32.7958C117.841 31.8089 118.52 30.943 119.368 30.2674C121.119 28.8292 123.396 28.1102 126.198 28.1102H129.702C130.907 28.1321 132.104 28.3098 133.264 28.6389C134.41 28.9243 135.501 29.3977 136.494 30.04V25.9265C136.522 25.3127 136.423 24.6997 136.203 24.1264C135.983 23.5531 135.648 23.0319 135.218 22.5955C134.773 22.1708 134.248 21.8402 133.674 21.6232C133.101 21.4061 132.489 21.3071 131.877 21.3319H127.306C126.094 21.2711 124.897 21.6273 123.913 22.3418C123.503 22.6455 123.172 23.0446 122.949 23.505C122.726 23.9654 122.616 24.4733 122.631 24.9854H117.514C117.48 23.8622 117.705 22.7464 118.173 21.726C118.641 20.7056 119.338 19.8086 120.209 19.1059C122.009 17.6114 124.375 16.8641 127.306 16.8641H131.866C134.798 16.8641 137.153 17.6942 138.932 19.3544C139.821 20.1945 140.519 21.2171 140.981 22.3529C141.442 23.4887 141.655 24.7111 141.606 25.9371V45.2568H136.762V41.5029C135.91 42.7743 134.765 43.8207 133.426 44.5536C132.156 45.2913 130.717 45.6865 129.25 45.701H125.914C123.137 45.6939 120.915 44.9731 119.248 43.5385ZM129.539 41.3813C131.103 41.4042 132.63 40.9018 133.878 39.9537C135.147 38.9976 136.07 37.6493 136.505 36.1151V34.4391C135.661 33.7286 134.673 33.2125 133.61 32.9269C132.384 32.5517 131.109 32.3628 129.828 32.3664H126.256C125.12 32.3184 124.004 32.674 123.103 33.371C122.705 33.6921 122.386 34.1028 122.174 34.5702C121.961 35.0376 121.86 35.5486 121.879 36.0623V37.7383C121.861 38.2418 121.959 38.7427 122.166 39.2015C122.373 39.6603 122.683 40.0644 123.072 40.382C123.993 41.0776 125.127 41.4257 126.277 41.3654L129.539 41.3813Z" fill="black"/>
<path d="M181.889 17.303L176.047 41.6245C175.867 42.6668 175.383 43.6314 174.655 44.395C173.982 44.9931 173.104 45.3057 172.207 45.2674H169.817L163.082 25.2815L156.2 45.2463H153.81C152.912 45.2845 152.035 44.9719 151.362 44.3739C150.63 43.6129 150.145 42.6471 149.969 41.6033L144.07 17.2818H149.523L154.099 38.8063L161.164 18.0273H163.108C163.683 18.0011 164.251 18.1685 164.721 18.5032C165.173 18.8957 165.498 19.4147 165.656 19.9942L171.892 38.8645L176.452 17.3082L181.889 17.303Z" fill="black"/>
<path d="M187.72 42.9463C186.071 41.1204 185.246 38.7129 185.246 35.7239V17.303H190.415V35.856C190.354 37.2252 190.768 38.5732 191.587 39.6682C191.947 40.1349 192.412 40.5096 192.943 40.7622C193.474 41.0148 194.057 41.1381 194.644 41.1222H197.986C198.789 41.1078 199.582 40.932 200.317 40.6052C201.052 40.2783 201.715 39.8069 202.267 39.2188C203.586 37.9121 204.479 36.2319 204.825 34.402V17.303H210V45.2463H205.104V41.2121C204.226 42.5071 203.09 43.6038 201.768 44.432C200.597 45.2207 199.226 45.6572 197.817 45.6904H194.256C193.033 45.7391 191.816 45.5187 190.687 45.0448C189.558 44.5708 188.546 43.8547 187.72 42.9463Z" fill="black"/>
<path d="M110.175 19.7668C108.263 17.8282 105.75 16.8571 102.636 16.8535H98.796C97.469 16.8726 96.1716 17.2507 95.0398 17.948C93.8168 18.6532 92.7779 19.6409 92.0086 20.8296V17.303H87.0546V56.0799H92.2292V42.444C93.0084 43.4457 94.0084 44.2512 95.1501 44.7968C96.2256 45.36 97.4158 45.6658 98.6279 45.6904H102.521C104.456 45.7305 106.364 45.227 108.031 44.2364C109.624 43.2599 110.901 41.8404 111.709 40.1493C112.61 38.2642 113.058 36.1922 113.017 34.1007V27.4387C113.031 24.2663 112.084 21.709 110.175 19.7668ZM107.827 35.0048C107.827 36.6207 107.189 38.1705 106.054 39.3136C104.92 40.4567 103.38 41.0996 101.775 41.101H98.7855C97.0522 41.101 95.39 40.4081 94.1644 39.1746C92.9388 37.9411 92.2503 36.2681 92.2503 34.5237V28.0044C92.2503 27.1409 92.4193 26.2859 92.7478 25.4882C93.0763 24.6905 93.5578 23.9657 94.1647 23.3554C94.7716 22.745 95.4921 22.2611 96.285 21.9311C97.0778 21.6011 97.9275 21.4316 98.7855 21.4323H101.775C103.38 21.4323 104.919 22.0741 106.054 23.2163C107.189 24.3586 107.827 25.9079 107.827 27.5233V35.0048Z" fill="black"/>
<path d="M23.7617 22.1091L23.956 21.9452C27.4428 18.9558 31.8735 17.3138 36.4539 17.3135C40.1267 17.3081 43.724 18.3632 46.8188 20.3537L49.9709 17.1813C45.3049 13.9066 39.6192 12.4417 33.9638 13.0573C34.1266 13.2159 34.3 13.3692 34.4891 13.512C29.614 14.2518 25.0561 16.3967 21.3661 19.6875L23.7617 22.1091Z" fill="#F89C27"/>
<path d="M27.0608 25.4242C28.0319 24.606 29.0889 23.8968 30.2129 23.3093C30.6796 22.1326 31.2902 21.019 32.0305 19.9942C29.5925 20.6416 27.3257 21.8203 25.3902 23.4468L25.2274 23.5895L27.0608 25.4242Z" fill="#F89C27"/>
<path d="M32.2197 7.37344C32.3727 8.10894 32.7125 8.79195 33.2061 9.35579C33.6997 9.91963 34.3301 10.345 35.0357 10.5905C35.7414 10.836 36.4983 10.8931 37.2324 10.7563C37.9666 10.6195 38.653 10.2934 39.2246 9.80997C39.7961 9.32651 40.2334 8.70215 40.4937 7.99784C40.754 7.29353 40.8284 6.53333 40.7096 5.79145C40.5908 5.04957 40.283 4.35135 39.8161 3.76495C39.3492 3.17855 38.7392 2.72401 38.0457 2.44569C36.6671 2.49384 35.3444 3.0053 34.2884 3.89846C33.2324 4.79162 32.5041 6.01502 32.2197 7.37344Z" fill="#F89C27"/>
<path d="M33.1022 22.1091C33.8604 21.882 34.6325 21.7054 35.4137 21.5804V19.6664C34.4343 20.2507 33.6344 21.0961 33.1022 22.1091Z" fill="#F89C27"/>
<path d="M42.8578 6.47988C42.8578 7.36618 42.6752 8.24286 42.3217 9.05461C41.9682 9.86635 41.4513 10.5955 40.8037 11.1961C41.7248 11.3565 42.6367 11.5665 43.5355 11.8253C44.2781 10.5934 44.5681 9.13838 44.355 7.71347C44.142 6.28857 43.4393 4.98394 42.3692 4.02658C42.6901 4.80426 42.8561 5.6378 42.8578 6.47988Z" fill="#F89C27"/>
<path d="M37.4731 19.6664V21.3319C37.7305 21.3319 37.9984 21.3319 38.2401 21.3319C38.5868 21.3319 38.9283 21.3319 39.2907 21.3742C38.8286 20.6674 38.2054 20.0819 37.4731 19.6664Z" fill="#F89C27"/>
<path d="M52.2876 17.8105L47.6857 22.4369C47.5114 22.6095 47.2828 22.7156 47.0393 22.7368C46.7957 22.758 46.5524 22.6931 46.3513 22.5532C44.6953 21.3808 42.8453 20.5143 40.8878 19.9942C41.2933 20.5427 41.6552 21.1226 41.97 21.7284C44.2367 22.2221 46.381 23.1717 48.274 24.5201C48.4301 24.6362 48.6228 24.6911 48.8162 24.6745C49.0096 24.658 49.1903 24.5711 49.3247 24.4302L53.9267 19.8038C54.0073 19.7225 54.0696 19.6247 54.1095 19.5171C54.1494 19.4095 54.1659 19.2945 54.1578 19.1799C54.1518 19.0653 54.1209 18.9534 54.0674 18.852C54.0138 18.7506 53.9389 18.6622 53.8479 18.5931C53.3961 18.2388 52.9286 17.9004 52.4557 17.5779C52.4105 17.6628 52.3539 17.7411 52.2876 17.8105Z" fill="#F89C27"/>
<path d="M55.7864 50.3538C58.5366 46.412 60.0301 41.7213 60.0686 36.905C60.1071 32.0886 58.6887 27.3744 56.0018 23.3886L52.8497 26.561C54.7162 29.616 55.7053 33.1316 55.7076 36.7179C55.7076 36.7972 55.7076 36.8659 55.7076 36.9452C56.1799 40.7819 55.3704 44.6677 53.4066 47.9903L55.7864 50.3538Z" fill="#26A9E0"/>
<path d="M62.7419 31.4676C61.7631 28.2941 60.1844 25.3409 58.0927 22.77C59.937 25.6772 61.1872 28.9251 61.77 32.3241C62.0619 32.0037 62.3878 31.7165 62.7419 31.4676Z" fill="#26A9E0"/>
<path d="M66.4718 41.0429C67.4414 41.0429 68.3828 40.7145 69.1444 40.1106C69.906 39.5067 70.4435 38.6624 70.6703 37.7137C70.8972 36.7649 70.8002 35.767 70.395 34.8804C69.9898 33.9939 69.3 33.2704 68.4366 32.8264C67.5022 32.8272 66.5804 33.0424 65.7411 33.4556C64.9018 33.8688 64.1671 34.4692 63.5929 35.211C63.5194 34.714 63.4248 34.217 63.3198 33.7306C62.7433 34.3484 62.3591 35.1227 62.2147 35.9577C62.0703 36.7928 62.172 37.6521 62.5072 38.4297C62.8423 39.2073 63.3964 39.8691 64.1009 40.3334C64.8054 40.7978 65.6296 41.0444 66.4718 41.0429Z" fill="#26A9E0"/>
<path d="M72.4082 34.2699C72.9711 35.6661 73.0293 37.2169 72.5726 38.6519C72.116 40.0869 71.1734 41.3151 69.9093 42.1224C68.6451 42.9297 67.1396 43.2649 65.6551 43.0695C64.1706 42.8742 62.8012 42.1607 61.7858 41.0534C61.0875 45.263 59.3457 49.2273 56.7215 52.5797C56.6305 52.6964 56.5161 52.7924 56.3858 52.8616C56.2554 52.9309 56.1121 52.9717 55.965 52.9816H55.902C55.7652 52.983 55.6295 52.9566 55.5031 52.9039C55.3767 52.8512 55.2622 52.7733 55.1665 52.6749L57.2994 54.8427C57.3746 54.9183 57.4639 54.9782 57.5622 55.019C57.6604 55.0598 57.7657 55.0808 57.872 55.0806H57.9193C58.033 55.0735 58.1438 55.0419 58.2444 54.9881C58.345 54.9343 58.433 54.8595 58.5024 54.7687C61.2031 51.3065 62.9595 47.195 63.5982 42.8405C64.1316 43.5198 64.8004 44.079 65.5617 44.4822C66.3229 44.8853 67.1596 45.1235 68.0179 45.1813C68.8762 45.2391 69.737 45.1152 70.5448 44.8177C71.3526 44.5202 72.0895 44.0556 72.708 43.4539C73.3265 42.8522 73.8128 42.1267 74.1357 41.3243C74.4586 40.5218 74.6108 39.6602 74.5825 38.7949C74.5543 37.9297 74.3462 37.0799 73.9717 36.3005C73.5972 35.5212 73.0646 34.8294 72.4082 34.2699Z" fill="#26A9E0"/>
<path d="M35.4137 62.541C31.0145 62.3726 26.7338 61.0591 22.9894 58.7288C23.0415 58.8405 23.1189 58.9383 23.2153 59.0144C26.7445 61.8197 30.9572 63.6201 35.4137 64.2276V62.541Z" fill="#4ABFB0"/>
<path d="M52.1826 54.3615L37.473 66.7602V61.5099C37.473 61.2295 37.3623 60.9605 37.1653 60.7622C36.9683 60.5639 36.701 60.4525 36.4224 60.4525C32.0319 60.4637 27.7267 59.2325 23.9981 56.8994L27.1501 53.7271C29.7354 55.1487 32.6119 55.9503 35.5555 56.0693C36.6509 56.2869 37.7645 56.3985 38.881 56.4024C42.9798 56.4156 46.9497 54.9613 50.0812 52.2995L52.1826 54.3615Z" fill="#4ABFB0"/>
<path d="M55.7759 57.9569L39.4536 71.8096C39.3072 71.935 39.1205 72.0026 38.9283 71.9999C38.8116 72.0001 38.6965 71.973 38.592 71.9206C38.4533 71.8563 38.3356 71.7535 38.2528 71.6243C38.1699 71.495 38.1255 71.3447 38.1245 71.191V68.9809L53.3909 56.0535C53.4163 56.0354 53.4392 56.0141 53.4592 55.99L53.622 55.8208L55.7759 57.9569Z" fill="#4ABFB0"/>
<path d="M19.27 36.6914C19.27 37.6696 19.9845 38.6847 21.2768 39.61C21.2558 39.2575 21.2453 38.905 21.2453 38.5526C21.2431 36.7406 21.5195 34.9392 22.0648 33.2124C20.2997 34.2699 19.2753 35.4542 19.27 36.6597V36.6914Z" fill="#EE3C68"/>
<path d="M19.8531 32.2395C20.9143 31.465 22.0688 30.829 23.2889 30.3467C23.6371 29.6784 24.0284 29.0337 24.4604 28.4168C24.5764 28.2604 24.6318 28.0668 24.6163 27.8722C24.6009 27.6776 24.5155 27.4953 24.3763 27.3594L22.3327 25.3026C22.5048 25.479 22.61 25.7104 22.6301 25.9567C22.6503 26.203 22.5841 26.4486 22.4431 26.6509C21.2529 28.3419 20.3755 30.2351 19.8531 32.2395Z" fill="#EE3C68"/>
<path d="M11.1272 41.064C10.2444 42.0313 9.08768 42.7021 7.81354 42.9858C6.5394 43.2696 5.20941 43.1524 4.00362 42.6502C4.58255 43.3163 5.29663 43.8497 6.09773 44.2145C6.89883 44.5794 7.76833 44.7671 8.64762 44.7651C9.75928 44.765 10.8496 44.4577 11.7997 43.8769C11.5256 42.9521 11.3011 42.0131 11.1272 41.064Z" fill="#EE3C68"/>
<path d="M21.634 42.2695C21.0108 41.9408 20.4136 41.5643 19.8479 41.1433C20.4911 43.5658 21.649 45.8189 23.2416 47.7471L23.3781 47.9163L21.9019 49.4073L21.7338 49.2064C18.8009 45.708 17.1897 41.2794 17.1844 36.702C17.1841 32.9813 18.2492 29.3393 20.2524 26.212L17.8778 23.7957C15.5751 27.0473 14.0701 30.8015 13.486 34.751C13.3235 34.5476 13.148 34.3551 12.9607 34.1747C12.8702 35.0105 12.8246 35.8507 12.8241 36.6914C12.8287 42.444 14.904 48.0001 18.6658 52.3312L18.8129 52.5004L17.9041 53.4151C18.4198 54.1478 18.9721 54.8537 19.5589 55.53L25.2589 49.7933C23.4657 47.6161 22.2221 45.0348 21.634 42.2695Z" fill="#EE3C68"/>
<path d="M10.7542 36.6914C10.7574 35.7227 10.4392 34.7806 9.85019 34.0144C9.26115 33.2482 8.43491 32.7017 7.5024 32.4616C6.11417 32.7276 4.85863 33.4648 3.94552 34.5503C3.0324 35.6358 2.517 37.0038 2.4854 38.4257C2.88558 39.3382 3.58543 40.0843 4.46751 40.539C5.34958 40.9937 6.3602 41.1291 7.32977 40.9227C8.29933 40.7162 9.16884 40.1804 9.79238 39.4052C10.4159 38.6299 10.7555 37.6624 10.7542 36.665V36.6914Z" fill="#EE3C68"/>
<path d="M66.4718 30.2515C65.5897 30.2502 64.717 30.4338 63.9093 30.7906C63.1016 31.1475 62.3766 31.6697 61.7805 32.3241C60.9671 27.5405 58.8315 23.0842 55.6183 19.4655L55.4502 19.2751L53.974 20.7609L54.1211 20.93C57.6488 24.9289 59.7324 30.009 60.0346 35.3479C60.3369 40.6869 58.84 45.9722 55.7864 50.3485L52.6344 47.1761C54.8856 43.6632 55.9484 39.512 55.6644 35.3415C55.3804 31.171 53.7648 27.2047 51.0583 24.0337L50.8902 23.838L49.414 25.3238L49.5559 25.493C51.2025 27.4477 52.3958 29.7469 53.0494 32.2237C51.0794 30.738 48.0744 29.5113 44.3025 28.8028C43.5828 25.0013 42.3902 21.9822 40.8983 19.9889C42.8562 20.5107 44.7062 21.379 46.3618 22.5532C46.5629 22.6931 46.8062 22.758 47.0498 22.7368C47.2934 22.7156 47.5219 22.6095 47.6962 22.4369L52.2981 17.8105C52.404 17.7044 52.4862 17.5767 52.5391 17.436C52.592 17.2953 52.6145 17.1448 52.605 16.9947C52.5956 16.8446 52.5544 16.6982 52.4843 16.5654C52.4142 16.4325 52.3167 16.3163 52.1983 16.2244C48.8804 13.6148 44.9672 11.8809 40.8142 11.1803C41.7607 10.3007 42.4215 9.15417 42.7104 7.89061C42.9993 6.62705 42.9029 5.30517 42.4336 4.09765C41.9644 2.89013 41.1442 1.85312 40.0802 1.12209C39.0162 0.391058 37.7579 0 36.4696 0C35.1814 0 33.923 0.391058 32.8591 1.12209C31.7951 1.85312 30.9749 2.89013 30.5056 4.09765C30.0364 5.30517 29.94 6.62705 30.2289 7.89061C30.5178 9.15417 31.1786 10.3007 32.1251 11.1803C27.3932 11.9966 22.9844 14.1346 19.4013 17.3506L19.2122 17.5197L20.6884 19.0055L20.8565 18.8574C24.8214 15.3416 29.8435 13.2662 35.1191 12.9633C40.3947 12.6604 45.6187 14.1475 49.9551 17.1866L46.8031 20.359C43.7082 18.3685 40.1109 17.3134 36.4381 17.3188C31.8577 17.3191 27.4271 18.9611 23.9403 21.9505L23.7617 22.1091L25.2431 23.6001L25.406 23.4574C27.3358 21.8291 29.5972 20.6469 32.0305 19.9942C30.5386 21.9875 29.3355 25.0065 28.6158 28.8134C24.8334 29.543 21.8337 30.7485 19.8531 32.2501C20.3777 30.2471 21.2568 28.3558 22.4483 26.6667C22.5894 26.4645 22.6556 26.2188 22.6354 25.9725C22.6152 25.7262 22.51 25.4948 22.338 25.3185L17.7413 20.6921C17.6361 20.5853 17.5095 20.5022 17.3699 20.4485C17.2304 20.3948 17.081 20.3717 16.9319 20.3807C16.7827 20.3897 16.6372 20.4306 16.505 20.5008C16.3728 20.5709 16.257 20.6686 16.1652 20.7873C13.543 24.1402 11.803 28.1045 11.1062 32.3136C10.2319 31.3617 9.09272 30.6973 7.83743 30.4072C6.58215 30.117 5.26909 30.2145 4.06973 30.687C2.87036 31.1595 1.84042 31.985 1.11439 33.0557C0.388369 34.1264 0 35.3925 0 36.6888C0 37.9851 0.388369 39.2512 1.11439 40.3219C1.84042 41.3926 2.87036 42.2181 4.06973 42.6906C5.26909 43.1631 6.58215 43.2606 7.83743 42.9704C9.09272 42.6803 10.2319 42.0159 11.1062 41.064C11.9131 45.7912 14.0103 50.1993 17.1634 53.7958L17.3262 53.9861L18.8025 52.5004L18.6554 52.3312C15.1713 48.3307 13.1223 43.2689 12.8365 37.9569C12.5507 32.6449 14.0448 27.3901 17.0793 23.0344L20.2314 26.2068C18.2282 29.334 17.1631 32.976 17.1634 36.6967C17.1674 41.276 18.7787 45.7066 21.7128 49.2064L21.8809 49.4074L23.3572 47.9163L23.2206 47.7471C21.6355 45.8169 20.4849 43.564 19.8479 41.1433C21.8284 42.6502 24.8334 43.8557 28.6158 44.5801C29.3355 48.3869 30.528 51.4059 32.02 53.3993C30.0129 52.8667 28.1188 51.9709 26.4304 50.7556C26.2289 50.6123 25.9838 50.5448 25.7379 50.5651C25.492 50.5854 25.2611 50.6922 25.0855 50.8666L20.494 55.4877C20.3876 55.5932 20.3047 55.7203 20.2509 55.8606C20.1971 56.0009 20.1737 56.1511 20.1821 56.3012C20.1906 56.4513 20.2307 56.5978 20.2999 56.7311C20.3691 56.8644 20.4657 56.9812 20.5834 57.0739C24.8233 60.4417 30.0163 62.3671 35.4137 62.5727V69.0443C35.4153 69.2428 35.4722 69.4367 35.5781 69.6041C35.6841 69.7714 35.8346 69.9054 36.0126 69.9908C36.1502 70.0576 36.3011 70.092 36.4539 70.0912C36.7 70.0902 36.938 70.0023 37.1263 69.8427L53.4119 56.0641C53.4373 56.046 53.4602 56.0247 53.4802 56.0006L53.643 55.8314L52.1826 54.3615L37.473 66.7602V61.51C37.473 61.2295 37.3624 60.9605 37.1653 60.7622C36.9683 60.5639 36.701 60.4525 36.4224 60.4525C31.5282 60.472 26.7512 58.9464 22.7635 56.0905L25.9156 52.9181C29.0399 54.9703 32.6915 56.0599 36.4224 56.0535C41.0076 56.0805 45.4473 54.4352 48.9202 51.4218L49.1146 51.2526L47.6384 49.7669L47.4703 49.9097C45.5428 51.555 43.2739 52.7456 40.83 53.394C42.3272 51.4007 43.5355 48.3711 44.2604 44.5483C48.0376 43.824 51.0426 42.6185 53.0231 41.1169C52.4963 43.1142 51.6173 45 50.4279 46.6844C50.2855 46.8872 50.2185 47.1339 50.2387 47.3814C50.2588 47.6288 50.3649 47.8613 50.5383 48.0379L55.135 52.659C55.2307 52.7575 55.3452 52.8354 55.4716 52.8881C55.598 52.9408 55.7337 52.9672 55.8705 52.9657H55.9335C56.0805 52.9559 56.2239 52.915 56.3542 52.8458C56.4845 52.7765 56.5989 52.6805 56.69 52.5639C59.3142 49.2115 61.056 45.2471 61.7543 41.0376C62.4727 41.8282 63.3757 42.4259 64.3816 42.7766C65.3875 43.1273 66.4644 43.2199 67.5148 43.0459C68.5652 42.872 69.5559 42.4371 70.3971 41.7805C71.2383 41.124 71.9035 40.2666 72.3324 39.286C72.7613 38.3054 72.9403 37.2327 72.8532 36.1649C72.7662 35.0971 72.4158 34.068 71.8339 33.1709C71.2519 32.2738 70.4568 31.537 69.5205 31.0272C68.5842 30.5174 67.5363 30.2508 66.4718 30.2515ZM70.7901 36.6914C70.7901 37.551 70.5369 38.3913 70.0624 39.106C69.5879 39.8208 68.9134 40.3778 68.1244 40.7068C67.3353 41.0357 66.467 41.1218 65.6294 40.9541C64.7917 40.7864 64.0223 40.3724 63.4183 39.7646C62.8144 39.1568 62.4031 38.3824 62.2365 37.5393C62.0699 36.6963 62.1554 35.8224 62.4822 35.0282C62.8091 34.2341 63.3626 33.5553 64.0727 33.0778C64.7828 32.6002 65.6177 32.3453 66.4718 32.3453C67.6167 32.3467 68.7142 32.805 69.5238 33.6198C70.3333 34.4346 70.7887 35.5392 70.7901 36.6914ZM45.0012 36.6914C45.0012 35.56 44.9539 34.3968 44.8646 33.2336V33.0591L44.6912 33.0221C44.1659 32.9005 43.6405 32.7841 43.0364 32.6837L42.7369 32.6308V32.9428C42.8473 34.2011 42.8998 35.4595 42.8998 36.6914C42.9051 38.7258 42.7646 40.7578 42.4795 42.7718C40.8227 43.015 39.1523 43.1527 37.4783 43.1842V30.1987C47.1446 30.4207 53.622 33.72 53.622 36.6914C53.622 38.965 50.0182 41.2332 44.6229 42.3911C44.8726 40.5016 44.999 38.5976 45.0012 36.6914ZM42.1118 44.9343C41.1504 49.4179 39.3853 52.7754 37.473 53.7218V45.2621C39.024 45.2361 40.5725 45.1267 42.1118 44.9343ZM35.4137 45.2833V53.7429C33.5435 52.8018 31.7731 49.4391 30.8117 44.9555C32.3388 45.1471 33.875 45.2565 35.4137 45.2833ZM30.796 28.4538C31.7468 23.9702 33.5172 20.6022 35.4137 19.6664V28.126C33.8698 28.1532 32.3284 28.2626 30.796 28.4538ZM37.473 28.1049V19.6452C39.3643 20.6075 41.1504 23.9702 42.096 28.4538C40.5623 28.2548 39.0191 28.1383 37.473 28.1049ZM19.27 36.6914C19.27 34.4232 22.8791 32.1549 28.2691 31.0023C28.0247 32.8904 27.9036 34.7927 27.9066 36.6967C27.9066 37.8335 27.9539 38.9967 28.0379 40.1599V40.3344L28.206 40.3714C28.7314 40.493 29.2567 40.604 29.8609 40.7045L30.1656 40.7574L30.1393 40.4507C30.029 39.1923 29.9764 37.9287 29.9764 36.6967C29.9714 34.6624 30.1118 32.6304 30.3967 30.6163C32.0541 30.3784 33.7242 30.2407 35.398 30.2039V43.1895C25.7422 42.9727 19.27 39.684 19.2542 36.7126L19.27 36.6914ZM40.7722 6.4799C40.7722 7.33948 40.5189 8.17977 40.0444 8.89449C39.5699 9.60921 38.8955 10.1663 38.1064 10.4952C37.3174 10.8242 36.4491 10.9102 35.6114 10.7425C34.7738 10.5748 34.0043 10.1609 33.4004 9.55309C32.7965 8.94527 32.3852 8.17086 32.2186 7.32779C32.0519 6.48472 32.1375 5.61085 32.4643 4.8167C32.7911 4.02254 33.3446 3.34377 34.0548 2.86621C34.7649 2.38865 35.5998 2.13375 36.4539 2.13375C37.5987 2.13515 38.6963 2.59349 39.5058 3.40825C40.3154 4.22301 40.7708 5.32766 40.7722 6.4799ZM10.7542 36.6914C10.7553 37.5525 10.5025 38.3946 10.0278 39.111C9.5531 39.8274 8.87791 40.3859 8.08767 40.7159C7.29743 41.0459 6.42767 41.1325 5.5885 40.9648C4.74932 40.7971 3.97846 40.3825 3.37348 39.7737C2.76851 39.1648 2.35662 38.3889 2.18997 37.5443C2.02331 36.6998 2.10937 35.8244 2.43726 35.0291C2.76515 34.2337 3.32013 33.5542 4.03194 33.0764C4.74374 32.5987 5.58038 32.3442 6.43594 32.3453C7.5808 32.3467 8.67837 32.805 9.48791 33.6198C10.2974 34.4346 10.7529 35.5392 10.7542 36.6914Z" fill="black"/>
</svg>
